<svg width="49" height="49" viewBox="0 0 49 49" fill="none" xmlns="http://www.w3.org/2000/svg">
<path d="M26.7969 6.125H22.2031C22.0001 6.125 21.8053 6.04434 21.6617 5.90075C21.5182 5.75717 21.4375 5.56243 21.4375 5.35938C21.4375 5.15632 21.5182 4.96158 21.6617 4.818C21.8053 4.67441 22.0001 4.59375 22.2031 4.59375H26.7969C26.9999 4.59375 27.1947 4.67441 27.3383 4.818C27.4818 4.96158 27.5625 5.15632 27.5625 5.35938C27.5625 5.56243 27.4818 5.75717 27.3383 5.90075C27.1947 6.04434 26.9999 6.125 26.7969 6.125ZM32.9219 47.4688H16.0781C15.0632 47.4675 14.0902 47.0638 13.3726 46.3462C12.6549 45.6285 12.2512 44.6555 12.25 43.6406V17.6094C12.25 17.4063 12.3307 17.2116 12.4742 17.068C12.6178 16.9244 12.8126 16.8438 13.0156 16.8438C13.2187 16.8438 13.4134 16.9244 13.557 17.068C13.7006 17.2116 13.7812 17.4063 13.7812 17.6094V43.6406C13.7812 44.907 14.8118 45.9375 16.0781 45.9375H32.9219C34.1882 45.9375 35.2188 44.907 35.2188 43.6406V17.6094C35.2188 17.4063 35.2994 17.2116 35.443 17.068C35.5866 16.9244 35.7813 16.8438 35.9844 16.8438C36.1874 16.8438 36.3822 16.9244 36.5258 17.068C36.6693 17.2116 36.75 17.4063 36.75 17.6094V43.6406C36.75 45.7507 35.0335 47.4688 32.9219 47.4688Z" fill="#060911"/>
<path d="M35.9844 22.9688C35.7813 22.9688 35.5866 22.8881 35.443 22.7445C35.2994 22.6009 35.2188 22.4062 35.2188 22.2031V5.35938C35.2188 4.09303 34.1882 3.0625 32.9219 3.0625H16.0781C14.8118 3.0625 13.7812 4.09303 13.7812 5.35938V22.2031C13.7812 22.4062 13.7006 22.6009 13.557 22.7445C13.4134 22.8881 13.2187 22.9688 13.0156 22.9688C12.8126 22.9688 12.6178 22.8881 12.4742 22.7445C12.3307 22.6009 12.25 22.4062 12.25 22.2031V5.35938C12.25 3.24931 13.9665 1.53125 16.0781 1.53125H32.9219C35.0335 1.53125 36.75 3.24931 36.75 5.35938V22.2031C36.75 22.4062 36.6693 22.6009 36.5258 22.7445C36.3822 22.8881 36.1874 22.9688 35.9844 22.9688ZM40.5781 9.26406C40.1555 9.26406 39.8125 8.99762 39.8125 8.575V8.42188C39.8125 8.21882 39.8932 8.02408 40.0367 7.8805C40.1803 7.73691 40.3751 7.65625 40.5781 7.65625C40.7812 7.65625 40.9759 7.73691 41.1195 7.8805C41.2631 8.02408 41.3438 8.21882 41.3438 8.42188C41.3438 8.8445 41.0008 9.26406 40.5781 9.26406ZM40.5781 12.3266C40.1555 12.3266 39.8125 12.0601 39.8125 11.6375V11.4844C39.8125 11.2813 39.8932 11.0866 40.0367 10.943C40.1803 10.7994 40.3751 10.7188 40.5781 10.7188C40.7812 10.7188 40.9759 10.7994 41.1195 10.943C41.2631 11.0866 41.3438 11.2813 41.3438 11.4844C41.3438 11.907 41.0008 12.3266 40.5781 12.3266ZM40.5781 15.3891C40.1555 15.3891 39.8125 15.1226 39.8125 14.7V14.5469C39.8125 14.3438 39.8932 14.1491 40.0367 14.0055C40.1803 13.8619 40.3751 13.7812 40.5781 13.7812C40.7812 13.7812 40.9759 13.8619 41.1195 14.0055C41.2631 14.1491 41.3438 14.3438 41.3438 14.5469C41.3438 14.9695 41.0008 15.3891 40.5781 15.3891ZM8.42188 35.1422C7.99925 35.1422 7.65625 34.8758 7.65625 34.4531V34.3C7.65625 34.0969 7.73691 33.9022 7.8805 33.7586C8.02408 33.615 8.21882 33.5344 8.42188 33.5344C8.62493 33.5344 8.81967 33.615 8.96325 33.7586C9.10684 33.9022 9.1875 34.0969 9.1875 34.3C9.1875 34.7226 8.8445 35.1422 8.42188 35.1422ZM8.42188 38.2047C7.99925 38.2047 7.65625 37.9383 7.65625 37.5156V37.3625C7.65625 37.1594 7.73691 36.9647 7.8805 36.8211C8.02408 36.6775 8.21882 36.5969 8.42188 36.5969C8.62493 36.5969 8.81967 36.6775 8.96325 36.8211C9.10684 36.9647 9.1875 37.1594 9.1875 37.3625C9.1875 37.7851 8.8445 38.2047 8.42188 38.2047ZM8.42188 41.2672C7.99925 41.2672 7.65625 41.0008 7.65625 40.5781V40.425C7.65625 40.2219 7.73691 40.0272 7.8805 39.8836C8.02408 39.74 8.21882 39.6594 8.42188 39.6594C8.62493 39.6594 8.81967 39.74 8.96325 39.8836C9.10684 40.0272 9.1875 40.2219 9.1875 40.425C9.1875 40.8476 8.8445 41.2672 8.42188 41.2672Z" fill="#060911"/>
<path d="M38.0378 41.3438C37.9236 41.3438 37.8108 41.3183 37.7077 41.2691C37.6047 41.2199 37.5139 41.1482 37.4421 41.0594C37.3703 40.9706 37.3193 40.8668 37.2928 40.7557C37.2663 40.6446 37.265 40.529 37.289 40.4173L37.7943 38.0745C37.8245 37.9338 37.8938 37.8045 37.9943 37.7015C38.0948 37.5986 38.2225 37.5262 38.3624 37.4927C39.1013 37.3115 39.8074 37.0165 40.4556 36.6183C40.5779 36.5437 40.7185 36.5049 40.8617 36.5062C41.0049 36.5076 41.1449 36.5491 41.2657 36.626L42.7816 37.5952L43.7203 36.6489L42.751 35.1452C42.6732 35.0243 42.6309 34.884 42.629 34.7402C42.6271 34.5965 42.6657 34.4551 42.7403 34.3322C43.1386 33.6842 43.4331 32.9779 43.6131 32.2389C43.6467 32.0994 43.7188 31.9721 43.8211 31.8715C43.9234 31.7708 44.0518 31.7008 44.1919 31.6693L45.9375 31.2819V29.9696L44.1934 29.5822C44.0534 29.5508 43.9249 29.4808 43.8226 29.3801C43.7203 29.2794 43.6483 29.1521 43.6146 29.0126C43.434 28.2738 43.1395 27.5676 42.7418 26.9194C42.6666 26.797 42.6275 26.6559 42.6292 26.5123C42.6308 26.3687 42.673 26.2284 42.751 26.1078L43.7218 24.5903L42.7847 23.6532L41.2672 24.624C41.1465 24.7013 41.0065 24.743 40.8633 24.7443C40.72 24.7457 40.5793 24.7066 40.4572 24.6317C39.8087 24.234 39.1026 23.9391 38.3639 23.7573C38.224 23.7238 38.0964 23.6514 37.9959 23.5485C37.8953 23.4455 37.826 23.3162 37.7958 23.1755L37.4192 21.4375H36.75C36.5469 21.4375 36.3522 21.3568 36.2086 21.2133C36.065 21.0697 35.9844 20.8749 35.9844 20.6719C35.9844 20.4688 36.065 20.2741 36.2086 20.1305C36.3522 19.9869 36.5469 19.9062 36.75 19.9062H38.0363C38.2112 19.9065 38.3807 19.9667 38.5166 20.0768C38.6526 20.1868 38.7468 20.3401 38.7835 20.5111L39.1923 22.3991C39.7528 22.5691 40.3025 22.7988 40.8323 23.0851L42.4769 22.0332C42.6239 21.9392 42.7987 21.8983 42.9722 21.9172C43.1457 21.9362 43.3075 22.0138 43.4308 22.1373L45.2393 23.9442C45.3625 24.0677 45.4399 24.2296 45.4585 24.4031C45.4772 24.5766 45.436 24.7512 45.3418 24.8981L44.2899 26.5427C44.5762 27.074 44.8059 27.6237 44.9759 28.1857L46.867 28.6053C47.2192 28.6834 47.4688 28.9958 47.4688 29.3541V31.8959C47.4687 32.0702 47.4092 32.2392 47.3 32.3751C47.1909 32.511 47.0387 32.6055 46.8685 32.6432L44.9774 33.0627C44.8046 33.6316 44.5747 34.1816 44.2914 34.7042L45.3418 36.3335C45.437 36.4799 45.479 36.6545 45.4608 36.8281C45.4427 37.0017 45.3656 37.1639 45.2423 37.2875L43.4339 39.1097C43.3105 39.2335 43.1485 39.3115 42.9748 39.3307C42.801 39.3499 42.6259 39.3092 42.4784 39.2153L40.8338 38.1633C40.3114 38.4461 39.762 38.676 39.1939 38.8493L38.785 40.7374C38.7483 40.9085 38.6542 41.062 38.5183 41.1723C38.3824 41.2826 38.2128 41.3431 38.0378 41.3438Z" fill="#060911"/>
<path d="M38.8799 34.5726C38.7159 34.5724 38.5564 34.5194 38.4248 34.4217C38.2931 34.3239 38.1964 34.1865 38.1487 34.0296C38.101 33.8727 38.105 33.7047 38.16 33.5502C38.215 33.3957 38.3181 33.263 38.4542 33.1716C39.0419 32.7755 39.4742 32.1881 39.6776 31.5092C39.881 30.8304 39.8429 30.102 39.5698 29.4481C39.2967 28.7941 38.8055 28.255 38.1797 27.9224C37.5539 27.5898 36.8322 27.4843 36.1374 27.6238C36.0389 27.644 35.9374 27.6446 35.8386 27.6256C35.7398 27.6066 35.6458 27.5683 35.5618 27.5129C35.4779 27.4575 35.4056 27.3861 35.3492 27.3028C35.2929 27.2195 35.2535 27.1259 35.2332 27.0274C35.213 26.9289 35.2124 26.8273 35.2315 26.7286C35.2505 26.6298 35.2888 26.5358 35.3442 26.4518C35.3996 26.3678 35.4709 26.2956 35.5542 26.2392C35.6375 26.1828 35.7311 26.1434 35.8297 26.1232C36.4971 25.9879 37.1864 26.0024 37.8475 26.1658C38.5087 26.3293 39.1253 26.6375 39.6529 27.0682C40.1805 27.4989 40.6058 28.0414 40.8982 28.6565C41.1906 29.2716 41.3428 29.944 41.3437 30.6251C41.3439 31.3799 41.158 32.1231 40.8025 32.7889C40.447 33.4547 39.9329 34.0227 39.3056 34.4425C39.1798 34.5272 39.0316 34.5725 38.8799 34.5726ZM12.2499 22.9688C11.2629 22.9701 10.3018 22.6534 9.50892 22.0656C8.71605 21.4778 8.13366 20.6502 7.84806 19.7054C7.56247 18.7606 7.58886 17.749 7.92334 16.8204C8.25781 15.8918 8.88256 15.0957 9.70501 14.55C9.87395 14.4445 10.0774 14.4091 10.272 14.4511C10.4667 14.4931 10.6374 14.6093 10.7477 14.7751C10.8581 14.9409 10.8996 15.1432 10.8633 15.339C10.827 15.5348 10.7158 15.7088 10.5533 15.824C9.96564 16.2185 9.53259 16.8042 9.32766 17.4817C9.12274 18.1592 9.15857 18.8868 9.42908 19.5408C9.69958 20.1949 10.1881 20.7353 10.8117 21.0701C11.4353 21.4049 12.1555 21.5137 12.8502 21.3779C13.0493 21.3386 13.2559 21.3796 13.4249 21.4921C13.5938 21.6045 13.7115 21.7793 13.7521 21.9781C13.772 22.0767 13.7722 22.1782 13.7527 22.2768C13.7333 22.3754 13.6946 22.4692 13.6388 22.5529C13.5831 22.6365 13.5113 22.7083 13.4278 22.7642C13.3442 22.8201 13.2505 22.8589 13.1519 22.8785C12.855 22.9389 12.5529 22.9692 12.2499 22.9688Z" fill="#060911"/>
<path d="M12.25 29.0938H10.9637C10.7888 29.0935 10.6193 29.0334 10.4834 28.9233C10.3474 28.8133 10.2532 28.66 10.2165 28.489L9.80766 26.601C9.23938 26.4279 8.68996 26.198 8.16769 25.915L6.52313 26.9669C6.37606 27.0609 6.2013 27.1018 6.0278 27.0829C5.85431 27.0639 5.69249 26.9863 5.56916 26.8628L3.76075 25.0559C3.6375 24.9324 3.56014 24.7705 3.54148 24.597C3.52283 24.4235 3.56399 24.2489 3.65816 24.102L4.71012 22.4574C4.42704 21.9341 4.19722 21.3836 4.02413 20.8144L2.13303 20.3948C1.96247 20.3571 1.80986 20.2624 1.70043 20.1263C1.59101 19.9901 1.53133 19.8207 1.53125 19.646V17.1041C1.53132 16.9299 1.59084 16.7608 1.69998 16.625C1.80912 16.4891 1.96134 16.3945 2.1315 16.3569L4.02259 15.9373C4.19256 15.3754 4.42225 14.8256 4.70859 14.2958L3.65969 12.6651C3.56458 12.5187 3.52258 12.3441 3.54069 12.1705C3.55881 11.9968 3.63594 11.8347 3.75922 11.7111L5.56763 9.8889C5.69057 9.76429 5.85264 9.68578 6.02663 9.66654C6.20062 9.6473 6.37593 9.68851 6.52313 9.78324L8.16769 10.8352C8.69009 10.5524 9.23949 10.3226 9.80766 10.1492L10.2165 8.26118C10.235 8.16034 10.2737 8.06425 10.33 7.97862C10.3864 7.89298 10.4594 7.81955 10.5447 7.76267C10.63 7.70578 10.7259 7.66661 10.8266 7.64748C10.9274 7.62835 11.0309 7.62964 11.1311 7.65129C11.2313 7.67293 11.3262 7.71448 11.41 7.77348C11.4939 7.83248 11.5651 7.90772 11.6193 7.99473C11.6735 8.08175 11.7097 8.17877 11.7257 8.28004C11.7417 8.38131 11.7373 8.48477 11.7125 8.58427L11.2072 10.9271C11.1771 11.0678 11.1077 11.1971 11.0072 11.3001C10.9067 11.403 10.7791 11.4755 10.6391 11.509C9.89988 11.6904 9.19324 11.9853 8.54437 12.3833C8.42215 12.4579 8.28145 12.4967 8.13826 12.4954C7.99508 12.494 7.85514 12.4525 7.73434 12.3756L6.21841 11.4064L5.27822 12.3527L6.2475 13.8564C6.32599 13.977 6.36866 14.1174 6.37056 14.2614C6.37246 14.4053 6.3335 14.5468 6.25822 14.6695C5.85985 15.3174 5.56535 16.0237 5.38541 16.7627C5.35173 16.9022 5.27966 17.0295 5.17736 17.1302C5.07507 17.2308 4.94663 17.3009 4.80659 17.3323L3.0625 17.7182V19.0305L4.80659 19.4179C4.94663 19.4493 5.07507 19.5193 5.17736 19.62C5.27966 19.7207 5.35173 19.848 5.38541 19.9875C5.55844 20.7102 5.85397 21.4146 6.25822 22.0807C6.41134 22.3303 6.40828 22.6457 6.24903 22.8923L5.27822 24.4082L6.21534 25.3453L7.73281 24.3745C7.85373 24.298 7.99363 24.2567 8.13674 24.2553C8.27985 24.254 8.4205 24.2926 8.54284 24.3669C9.21047 24.7726 9.91484 25.0666 10.6361 25.2412C10.776 25.2747 10.9036 25.3471 11.0041 25.4501C11.1047 25.5531 11.174 25.6824 11.2042 25.8231L11.5808 27.5626H12.25C12.4531 27.5626 12.6478 27.6432 12.7914 27.7868C12.935 27.9304 13.0156 28.1252 13.0156 28.3282C13.0156 28.5313 12.935 28.726 12.7914 28.8696C12.6478 29.0132 12.4531 29.0938 12.25 29.0938ZM23.7344 28.3282C23.618 28.3285 23.5031 28.3021 23.3984 28.2512C23.2937 28.2003 23.2021 28.1262 23.1304 28.0344C23.0588 27.9427 23.009 27.8358 22.985 27.7219C22.961 27.608 22.9633 27.4902 22.9917 27.3773L24.523 21.2523C24.5466 21.1544 24.5895 21.0621 24.6491 20.9809C24.7087 20.8997 24.7839 20.8312 24.8702 20.7793C24.9566 20.7274 25.0524 20.6933 25.1521 20.6788C25.2518 20.6643 25.3534 20.6698 25.4509 20.6949C25.5485 20.7191 25.6404 20.7623 25.7213 20.8221C25.8022 20.8818 25.8705 20.957 25.9222 21.0432C25.974 21.1294 26.0083 21.225 26.023 21.3244C26.0378 21.4239 26.0328 21.5253 26.0083 21.6229L24.477 27.7479C24.4362 27.9138 24.3408 28.0613 24.2061 28.1665C24.0714 28.2718 23.9053 28.3287 23.7344 28.3282ZM28.3281 28.3282C28.1768 28.3282 28.0289 28.2833 27.9031 28.1993C27.7772 28.1152 27.6791 27.9958 27.6211 27.8561C27.5631 27.7163 27.5479 27.5625 27.5772 27.4141C27.6066 27.2656 27.6792 27.1292 27.7861 27.0221L30.308 24.5001L27.7876 21.9796C27.6481 21.8352 27.571 21.6418 27.5727 21.4411C27.5744 21.2404 27.655 21.0483 27.7969 20.9064C27.9389 20.7644 28.1309 20.6839 28.3316 20.6822C28.5324 20.6804 28.7258 20.7576 28.8702 20.8971L31.9327 23.9596C32.0762 24.1031 32.1569 24.2978 32.1569 24.5008C32.1569 24.7039 32.0762 24.8986 31.9327 25.0421L28.8702 28.1046C28.7261 28.2479 28.5313 28.3282 28.3281 28.3282ZM20.6719 28.3282C20.4687 28.3282 20.2739 28.2479 20.1298 28.1046L17.0673 25.0421C16.9238 24.8986 16.8431 24.7039 16.8431 24.5008C16.8431 24.2978 16.9238 24.1031 17.0673 23.9596L20.1298 20.8971C20.2742 20.7576 20.4676 20.6804 20.6684 20.6822C20.8691 20.6839 21.0611 20.7644 21.2031 20.9064C21.345 21.0483 21.4256 21.2404 21.4273 21.4411C21.429 21.6418 21.3519 21.8352 21.2124 21.9796L18.692 24.5001L21.2124 27.0205C21.3197 27.1275 21.3928 27.2639 21.4225 27.4125C21.4522 27.561 21.4371 27.715 21.3793 27.8551C21.3214 27.9951 21.2233 28.1147 21.0974 28.199C20.9715 28.2832 20.8234 28.3282 20.6719 28.3282Z" fill="#060911"/>
</svg>
