<svg width="49" height="45" viewBox="0 0 49 45" fill="none" xmlns="http://www.w3.org/2000/svg">
<path d="M45.2503 2.12443C43.591 0.465131 40.8656 0.587056 39.3612 2.3879L32.5657 10.5217L36.8531 14.8091L44.987 8.01362C46.7875 6.50907 46.9095 3.78364 45.2503 2.12443ZM48.2822 16.0342V37.6911C48.2822 41.2002 45.4377 44.0457 41.9286 44.0457H36.0527C39.5619 44.0457 42.4063 41.2002 42.4063 37.6911V16.0342H48.2822Z" stroke="#060911" stroke-width="1.43555" stroke-miterlimit="10" stroke-linecap="round" stroke-linejoin="round"/>
<path d="M8.49941 12.6658C9.55525 12.6658 10.4112 11.8099 10.4112 10.7541C10.4112 9.69821 9.55525 8.84229 8.49941 8.84229C7.44357 8.84229 6.58765 9.69821 6.58765 10.7541C6.58765 11.8099 7.44357 12.6658 8.49941 12.6658Z" stroke="#060911" stroke-width="1.43555" stroke-miterlimit="10" stroke-linecap="round" stroke-linejoin="round"/>
<path d="M15.2516 12.6658C16.3074 12.6658 17.1634 11.8099 17.1634 10.7541C17.1634 9.69821 16.3074 8.84229 15.2516 8.84229C14.1958 8.84229 13.3398 9.69821 13.3398 10.7541C13.3398 11.8099 14.1958 12.6658 15.2516 12.6658Z" stroke="#060911" stroke-width="1.43555" stroke-miterlimit="10" stroke-linecap="round" stroke-linejoin="round"/>
<path d="M22.0036 12.6658C23.0594 12.6658 23.9153 11.8099 23.9153 10.7541C23.9153 9.69821 23.0594 8.84229 22.0036 8.84229C20.9477 8.84229 20.0918 9.69821 20.0918 10.7541C20.0918 11.8099 20.9477 12.6658 22.0036 12.6658Z" stroke="#060911" stroke-width="1.43555" stroke-miterlimit="10" stroke-linecap="round" stroke-linejoin="round"/>
<path d="M32.5656 10.5217L36.7502 5.51298C36.5186 5.4874 36.2858 5.47443 36.0528 5.47412H7.07237C3.56322 5.47412 0.717773 8.31861 0.717773 11.8287V16.0343H24.7305C26.2673 14.1666 26.6673 11.7238 32.5656 10.5217ZM36.853 14.8091C36.7704 15.2236 36.6629 15.6327 36.5313 16.0343H42.4064V11.8287C42.4063 11.3207 42.3454 10.8145 42.225 10.321L36.853 14.8091Z" stroke="#060911" stroke-width="1.43555" stroke-miterlimit="10" stroke-linecap="round" stroke-linejoin="round"/>
<path d="M42.4064 16.034V11.8285C42.4063 11.3205 42.3454 10.8143 42.225 10.3208L44.9868 8.01336C45.3649 7.69828 45.6814 7.31587 45.9202 6.8855C47.3605 8.0504 48.2822 9.83124 48.2822 11.8285V16.034H42.4064ZM42.4064 16.034V37.6909C42.4064 41.2 39.5619 44.0455 36.0528 44.0455H7.07237C3.56322 44.0455 0.717773 41.2 0.717773 37.6909V16.034H24.7305C24.6106 16.1805 24.484 16.3212 24.3511 16.4559C23.1023 17.7158 23.4031 19.8297 24.9545 20.6898C29.6154 23.2736 34.8508 21.1582 36.5312 16.034H42.4064Z" stroke="#060911" stroke-width="1.43555" stroke-miterlimit="10" stroke-linecap="round" stroke-linejoin="round"/>
<path d="M32.5656 10.5215C26.2116 11.8165 26.2387 14.5514 24.3511 16.4558C23.1024 17.7158 23.4031 19.8297 24.9545 20.6898C29.9714 23.4709 35.6546 20.8084 36.8529 14.8089L32.5656 10.5215ZM16.2778 25.217H9.04387C7.68737 25.217 6.58765 26.3167 6.58765 27.6732V34.9071C6.58765 36.2636 7.68737 37.3633 9.04387 37.3633H16.2778C17.6343 37.3633 18.734 36.2636 18.734 34.9071V27.6732C18.734 26.3167 17.6343 25.217 16.2778 25.217ZM34.8893 25.6014H24.5167C23.4322 25.6014 22.553 26.4806 22.553 27.5651C22.553 28.6496 23.4322 29.5287 24.5167 29.5287H34.8894C35.9739 29.5287 36.853 28.6496 36.853 27.5651C36.853 26.4806 35.9738 25.6014 34.8893 25.6014ZM34.8893 33.0515H24.5167C23.4322 33.0515 22.553 33.9307 22.553 35.0152C22.553 36.0997 23.4322 36.9788 24.5167 36.9788H34.8894C35.9739 36.9788 36.853 36.0997 36.853 35.0152C36.853 33.9308 35.9738 33.0515 34.8893 33.0515Z" stroke="#060911" stroke-width="1.43555" stroke-miterlimit="10" stroke-linecap="round" stroke-linejoin="round"/>
</svg>
