<svg width="49" height="49" viewBox="0 0 49 49" fill="none" xmlns="http://www.w3.org/2000/svg">
<path d="M17.0045 24.4283L19.6201 13.0205C19.6657 12.8228 19.7878 12.6513 19.9597 12.5435C20.1315 12.4357 20.3391 12.4004 20.5369 12.4453C20.9485 12.5401 21.2059 12.9497 21.1121 13.3622L18.4965 24.77C18.4579 24.9386 18.3632 25.0892 18.228 25.1971C18.0928 25.305 17.925 25.364 17.752 25.3643C17.6955 25.3643 17.6381 25.3576 17.5807 25.3452C17.4826 25.3228 17.39 25.2813 17.308 25.2232C17.2259 25.165 17.1562 25.0912 17.1027 25.0061C17.0492 24.9209 17.013 24.8261 16.9961 24.727C16.9793 24.6278 16.9822 24.5264 17.0045 24.4283ZM8.46303 19.5618L14.7268 23.0617C14.8445 23.1277 14.9728 23.1593 15.0991 23.1593C15.3671 23.1593 15.6274 23.0177 15.768 22.7669C15.9738 22.3985 15.8417 21.9324 15.4733 21.7257L10.4048 18.8938L15.4733 16.062C15.8417 15.8562 15.9738 15.3901 15.768 15.0207C15.5623 14.6523 15.0962 14.5202 14.7268 14.7259L8.46303 18.2258C8.34417 18.2922 8.24521 18.3891 8.17639 18.5065C8.10757 18.624 8.07139 18.7577 8.0716 18.8938C8.07119 19.03 8.10728 19.1638 8.17612 19.2813C8.24496 19.3987 8.34404 19.4956 8.46303 19.5618ZM22.3505 22.7669C22.3995 22.8547 22.4652 22.932 22.5441 22.9943C22.6229 23.0567 22.7133 23.1028 22.81 23.1302C22.9067 23.1576 23.0079 23.1656 23.1077 23.1539C23.2075 23.1421 23.3041 23.1108 23.3918 23.0617L29.6555 19.5618C29.8977 19.4269 30.047 19.1714 30.047 18.8938C30.047 18.6163 29.8967 18.3608 29.6555 18.2258L23.3918 14.7259C23.2145 14.6272 23.0054 14.6027 22.8102 14.658C22.615 14.7133 22.4496 14.8437 22.3505 15.0207C22.1447 15.3892 22.2768 15.8552 22.6453 16.062L27.7137 18.8938L22.6453 21.7257C22.2768 21.9314 22.1447 22.3975 22.3505 22.7669ZM49 28.7445V31.4281C49 31.7592 48.7866 32.053 48.4717 32.1554L46.8027 32.698C46.5873 33.4751 46.2782 34.2207 45.8801 34.9212L46.6782 36.4869C46.8295 36.7826 46.772 37.1415 46.5366 37.376L44.6417 39.2709C44.5275 39.3855 44.3799 39.4609 44.2202 39.4864C44.0604 39.5118 43.8967 39.486 43.7526 39.4126L42.1879 38.6144C41.4871 39.0136 40.7393 39.3239 39.9618 39.5379L39.8326 39.9322L39.4211 41.2041C39.3712 41.358 39.2739 41.4921 39.143 41.5872C39.0122 41.6823 38.8545 41.7335 38.6928 41.7334H36.0102C35.6781 41.7334 35.3843 41.52 35.2819 41.2041L34.7412 39.5379C33.9631 39.3236 33.2166 39.0144 32.5151 38.6144L30.9504 39.4126C30.8063 39.4862 30.6426 39.5122 30.4828 39.4867C30.323 39.4613 30.1754 39.3857 30.0613 39.2709L28.1664 37.376C28.0661 37.2758 27.9956 37.1498 27.9627 37.0119C27.9297 36.8741 27.9356 36.7298 27.9798 36.5951H23.2434L24.5354 40.2031H27.0677C27.4907 40.2031 27.8324 40.5457 27.8324 40.9677C27.8324 41.3898 27.4898 41.7324 27.0677 41.7324H11.0499C10.6269 41.7324 10.2852 41.3898 10.2852 40.9677C10.2852 40.5457 10.6278 40.2031 11.0499 40.2031H13.5822L14.8742 36.5951H3.16395C1.41928 36.5951 0 35.1767 0 33.4321V10.427C0 8.68421 1.41928 7.26685 3.16299 7.26685H34.9546C36.6993 7.26685 38.1176 8.68421 38.1176 10.427V18.4383H38.6928C39.0249 18.4383 39.3187 18.6517 39.4211 18.9675L39.9618 20.6347C40.7399 20.85 41.4854 21.1591 42.1869 21.5572L43.7536 20.761C43.8974 20.6878 44.0606 20.6621 44.22 20.6873C44.3793 20.7126 44.5266 20.7876 44.6407 20.9017L46.5366 22.7947C46.6512 22.9089 46.7266 23.0564 46.752 23.2162C46.7775 23.3759 46.7517 23.5396 46.6782 23.6838L45.8801 25.2485C46.2811 25.9538 46.5902 26.6994 46.8036 27.4736L47.1979 27.6028L48.4698 28.0143C48.7856 28.1186 49 28.4125 49 28.7445ZM1.53029 10.427V28.9934H25.7049V28.7436C25.7049 28.4115 25.9183 28.1177 26.2341 28.0153L27.9013 27.4746C28.1166 26.6965 28.4257 25.951 28.8248 25.2495L28.0267 23.6838C27.953 23.5397 27.9271 23.3759 27.9525 23.2161C27.978 23.0563 28.0535 22.9087 28.1683 22.7947L30.0642 20.9017C30.1783 20.7876 30.3255 20.7124 30.4848 20.687C30.6441 20.6616 30.8074 20.6871 30.9513 20.76L32.518 21.5563C33.2195 21.1582 33.965 20.849 34.7431 20.6337L34.8723 20.2384L35.2838 18.9666C35.3337 18.8127 35.431 18.6786 35.5619 18.5835C35.6927 18.4884 35.8504 18.4372 36.0121 18.4373H36.5902V10.426C36.5902 9.52735 35.8571 8.79522 34.9575 8.79522H3.16395C2.26338 8.79714 1.53029 9.52831 1.53029 10.427ZM3.16395 35.0657H28.7511L28.8248 34.9212C28.4271 34.2209 28.1173 33.4742 27.9022 32.698L26.2332 32.1554C26.0796 32.1054 25.9459 32.0081 25.851 31.8775C25.7561 31.7468 25.7049 31.5895 25.7049 31.4281V30.5246H1.53029V33.433C1.53029 34.3326 2.26338 35.0657 3.16395 35.0657ZM21.6203 36.5951H16.4992L15.2072 40.2031H22.9123L21.6203 36.5951ZM47.4697 29.3006L45.927 28.7981C45.8014 28.7567 45.6887 28.6836 45.5996 28.5859C45.5106 28.4881 45.4483 28.3691 45.4188 28.2402C45.214 27.3396 44.858 26.4802 44.3584 25.6859C44.2879 25.5739 44.2477 25.4454 44.2419 25.3132C44.236 25.181 44.2646 25.0495 44.3249 24.9317L45.0618 23.4847L43.9517 22.3765L42.5046 23.1124C42.3867 23.1725 42.2553 23.201 42.1231 23.1951C41.991 23.1892 41.8626 23.1492 41.7505 23.0789C40.9641 22.5843 40.0999 22.2258 39.1943 22.0185C39.0658 21.9888 38.9472 21.9266 38.8498 21.8377C38.7524 21.7489 38.6796 21.6365 38.6382 21.5113L38.1358 19.9686H36.5662L36.0638 21.5113C36.0226 21.6366 35.9498 21.7491 35.8524 21.8379C35.755 21.9268 35.6363 21.989 35.5078 22.0185C34.6024 22.2264 33.7383 22.5849 32.9515 23.0789C32.8395 23.1494 32.7111 23.1896 32.5789 23.1954C32.4467 23.2013 32.3152 23.1727 32.1974 23.1124L30.7504 22.3765L29.6402 23.4847L30.3771 24.9317C30.4372 25.0496 30.4657 25.181 30.4598 25.3132C30.4539 25.4454 30.4139 25.5738 30.3436 25.6859C29.8494 26.4725 29.491 27.3366 29.2832 28.2421C29.2536 28.3705 29.1913 28.4892 29.1025 28.5865C29.0136 28.6839 28.9012 28.7568 28.776 28.7981L27.2333 29.3006V30.872L28.7741 31.3725C29.0296 31.4558 29.2239 31.6664 29.2842 31.9286C29.4921 32.834 29.8505 33.6981 30.3446 34.4848C30.4881 34.7126 30.5006 34.9987 30.3781 35.239L29.9044 36.1682C29.8986 36.1797 29.8929 36.1922 29.8862 36.2036L29.6402 36.6869L30.7504 37.7971L32.1974 37.0602C32.3155 37 32.4471 36.9716 32.5795 36.9776C32.7119 36.9837 32.8404 37.024 32.9525 37.0946C33.7401 37.5913 34.5986 37.9483 35.5049 38.1541C35.7671 38.2134 35.9786 38.4067 36.0629 38.6623L36.5653 40.205H38.1348L38.6373 38.6623C38.6785 38.5366 38.7516 38.4238 38.8494 38.3347C38.9471 38.2457 39.0663 38.1835 39.1952 38.1541C40.1002 37.949 40.9634 37.5907 41.7476 37.0946C41.8597 37.024 41.9882 36.9837 42.1206 36.9776C42.253 36.9716 42.3846 37 42.5027 37.0602L43.9497 37.7971L45.0599 36.6869L44.323 35.2399C44.2629 35.122 44.2344 34.9906 44.2403 34.8584C44.2462 34.7263 44.2862 34.5979 44.3565 34.4858C44.8513 33.6972 45.2082 32.8378 45.4169 31.9295C45.4464 31.8006 45.5089 31.6815 45.5984 31.584C45.6878 31.4866 45.801 31.414 45.927 31.3735L47.4678 30.873V29.3006H47.4697ZM42.0816 30.0873C42.0816 32.6942 39.9608 34.8159 37.3529 34.8159C34.7441 34.8159 32.6214 32.6952 32.6214 30.0873C32.6214 27.4784 34.7441 25.3557 37.3529 25.3557C39.9608 25.3557 42.0816 27.4784 42.0816 30.0873ZM40.5523 30.0873C40.5523 28.3225 39.1177 26.886 37.3539 26.886C35.5891 26.886 34.1526 28.3225 34.1526 30.0873C34.1526 31.8511 35.5891 33.2857 37.3539 33.2857C39.1167 33.2857 40.5523 31.8511 40.5523 30.0873Z" fill="#060911"/>
</svg>
