<svg width="47" height="32" viewBox="0 0 47 32" fill="none" xmlns="http://www.w3.org/2000/svg">
<path d="M40.5185 0.592359C41.3838 1.16224 41.8497 2.02926 42.3428 2.91983C42.6732 3.48177 43.0812 3.96816 43.4953 4.46836C45.0275 6.31932 46.17 8.06284 46.4951 10.5211C46.5753 10.8432 46.7218 11.0171 46.9189 11.2786C46.9312 11.928 46.7199 12.3469 46.324 12.835C44.502 14.6899 40.9218 15.5123 38.4336 15.5499C37.2168 15.5394 36.1221 15.1813 34.9953 14.7434C34.9936 14.8202 34.9919 14.8971 34.9902 14.9763C34.8741 17.2024 33.5354 19.217 31.9379 20.6841C31.7799 20.8189 31.6174 20.9482 31.4536 21.0757C31.6291 20.5873 31.8666 20.1679 32.1325 19.7241C33.2059 17.87 34.2456 15.1548 33.7064 12.9951C33.6642 12.8623 33.6221 12.7296 33.5786 12.5928C33.5343 12.3738 33.49 12.1547 33.4458 11.9357C33.1003 10.5386 32.3437 9.36323 31.4167 8.28883C31.2175 8.05268 31.2175 8.05268 31.2175 7.9332C32.6245 7.99177 34.0855 8.06485 35.3716 8.69487C35.9757 8.96414 36.3886 8.81679 37.0022 8.62906C38.3928 8.24241 39.7559 8.77371 41.0161 9.36692C40.9613 9.16363 40.9613 9.16363 40.9054 8.95622C40.7815 8.40714 40.756 7.86658 40.7357 7.30594C40.6887 6.17979 40.3827 5.20965 39.9831 4.1622C39.8356 3.7515 39.8356 3.7515 39.8356 3.27359C39.5628 3.27359 39.2901 3.27359 39.0092 3.27359C38.9313 3.47073 38.8533 3.66787 38.7731 3.87098C38.3321 3.93963 37.9215 3.99046 37.4745 3.99046C37.3576 4.06931 37.2407 4.14817 37.1203 4.22941C36.5297 4.20285 36.1654 3.99553 35.7036 3.63202C35.3067 3.18287 35.2965 2.87095 35.3153 2.28697C35.37 1.76206 35.4633 1.23649 35.7036 0.764574C36.8729 -0.053848 39.2642 0.0168045 40.5185 0.592359Z" fill="#01A900"/>
<path d="M8.63955 0.00291842C8.85527 0.00314944 8.85527 0.00314944 9.07534 0.00338513C10.205 0.0147293 10.205 0.0147293 10.676 0.286677C10.7595 0.30177 10.8431 0.316863 10.9292 0.332414C11.1482 0.406154 11.1482 0.406154 11.2677 0.606838C11.3559 0.896926 11.4336 1.18597 11.5024 1.48145C11.5446 1.64478 11.5446 1.64478 11.5877 1.81141C11.6544 2.17008 11.6837 2.43547 11.6204 2.7957C11.2686 3.25834 10.8379 3.60983 10.3218 3.87099C10.0464 3.8758 9.77087 3.87615 9.49545 3.87099C9.43701 3.75271 9.43701 3.75271 9.3774 3.63204C9.2313 3.65914 9.08521 3.68625 8.93469 3.71418C8.58338 3.75885 8.4684 3.76991 8.1452 3.60217C7.96073 3.39308 7.96073 3.39308 7.84268 3.03465C7.60893 3.03465 7.37518 3.03465 7.13435 3.03465C7.11426 3.10565 7.09417 3.17665 7.07348 3.2498C6.87854 3.92455 6.65771 4.58292 6.41034 5.23984C6.23259 5.76734 6.1731 6.27115 6.15255 6.82665C6.14513 7.01782 6.14513 7.01782 6.13757 7.21285C6.13292 7.34461 6.12828 7.47636 6.1235 7.61212C6.11585 7.81322 6.11585 7.81322 6.10805 8.01838C6.09556 8.34841 6.08351 8.67845 6.07185 9.0085C6.16693 8.96383 6.262 8.91916 6.35996 8.87313C7.59018 8.29507 8.80164 8.05084 10.1443 8.39852C10.4464 8.51105 10.7394 8.62989 11.0302 8.76955C11.0886 8.59213 11.0886 8.59213 11.1482 8.41112C11.3507 8.31749 11.3507 8.31749 11.6131 8.24964C11.7091 8.22438 11.8051 8.19912 11.9041 8.1731C12.0559 8.13567 12.0559 8.13567 12.2107 8.09749C12.3083 8.07162 12.4058 8.04574 12.5063 8.01908C13.3686 7.79784 14.2195 7.67409 15.1104 7.68679C15.2604 7.68841 15.2604 7.68841 15.4134 7.69006C15.4863 7.69144 15.5592 7.69283 15.6343 7.69426C15.5928 7.74801 15.5512 7.80176 15.5084 7.85714C14.2721 9.48729 13.5203 11.0399 13.1552 13.0707C13.0772 13.0707 12.9993 13.0707 12.9191 13.0707C12.956 13.1698 12.993 13.2688 13.0311 13.3708C13.1653 13.8217 13.2114 14.255 13.2511 14.721C13.4806 16.9092 14.2914 18.7904 15.5163 20.5978C15.4773 20.6766 15.4383 20.7555 15.3982 20.8367C13.8701 19.3993 12.0646 17.4576 11.9631 15.2045C11.9669 14.9712 11.9708 14.7378 11.9746 14.5045C11.808 14.5541 11.808 14.5541 11.638 14.6048C11.491 14.6481 11.344 14.6913 11.1925 14.7359C10.9747 14.8004 10.9747 14.8004 10.7526 14.8661C7.72738 15.6824 4.25533 14.8626 1.58575 13.3097C0.932523 12.925 0.4032 12.444 0.0510374 11.7565C-0.027189 11.3931 -0.00601741 11.1792 0.0510374 10.8007C0.107496 10.752 0.163955 10.7033 0.222125 10.6532C0.510441 10.321 0.511306 9.91788 0.567529 9.49388C0.900795 7.37667 1.9987 5.94015 3.322 4.3307C3.99648 3.48295 4.62433 2.59482 5.1643 1.6532C6.01327 0.190894 7.05969 -0.0296421 8.63955 0.00291842Z" fill="#01A901"/>
<path d="M19.7957 7.44042C19.9439 7.52404 20.0914 7.60867 20.2384 7.69431C20.5797 7.88796 20.6954 7.93355 21.1017 7.92579C21.791 7.93762 22.2095 8.13589 22.6955 8.62772C23.2172 9.39718 23.2245 10.0971 23.2222 11C23.2228 11.1269 23.2235 11.2539 23.2241 11.3847C23.2257 11.8034 23.2256 12.2222 23.2253 12.6409C23.2258 12.9326 23.2263 13.2242 23.2269 13.5158C23.2277 14.1268 23.2277 14.7377 23.2271 15.3486C23.2264 16.131 23.2284 16.9133 23.2311 17.6957C23.2329 18.2978 23.233 18.9 23.2326 19.5022C23.2327 19.7906 23.2333 20.079 23.2345 20.3674C23.2359 20.771 23.2351 21.1744 23.2338 21.5779C23.2347 21.6966 23.2356 21.8154 23.2365 21.9378C23.2314 22.6188 23.1634 23.1045 22.8357 23.7042C22.307 24.177 21.8716 24.3016 21.1829 24.3016C20.7918 24.0925 20.7918 24.0925 20.4746 23.8237C20.365 23.7313 20.365 23.7313 20.2532 23.637C20.1204 23.4653 20.1204 23.4653 20.1204 23.1069C19.9986 23.1167 19.8769 23.1266 19.7515 23.1367C19.2114 23.1015 18.9963 22.9784 18.5857 22.6289C18.3275 22.2718 18.2315 22.1176 18.2315 21.6731C18.1122 21.6509 17.9929 21.6288 17.87 21.6059C17.2211 21.4155 16.7762 20.9516 16.4482 20.364C16.161 19.6721 16.105 18.9296 16.3426 18.2083C16.2404 18.2181 16.1381 18.228 16.0327 18.2382C15.4062 18.1912 15.0649 17.8862 14.653 17.4242C14.3808 17.0264 14.3175 16.7176 14.3135 16.2444C14.3119 16.1534 14.3102 16.0623 14.3085 15.9686C14.3386 15.6706 14.4331 15.4831 14.5718 15.2214C14.5471 14.8589 14.4086 14.6728 14.2102 14.3626C13.9201 13.8614 13.8781 13.4005 13.9815 12.8318C14.1714 12.474 14.3358 12.2118 14.6474 11.9558C14.8761 11.6718 14.8275 11.4812 14.8005 11.1218C14.7829 10.5092 14.8707 10.199 15.2801 9.72542C15.341 9.65395 15.4019 9.58249 15.4646 9.50886C15.8676 9.17194 16.3202 9.23806 16.8148 9.24751C16.8246 9.1243 16.8343 9.00109 16.8444 8.87414C16.9561 8.29002 17.1238 7.89821 17.6131 7.54356C18.366 7.11694 19.0166 7.05199 19.7957 7.44042Z" fill="#090909"/>
<path d="M28.8834 7.32891C29.3591 7.61653 29.7503 7.92336 30.0372 8.4112C30.1257 8.86671 30.1257 8.86671 30.1553 9.24754C30.3379 9.23276 30.3379 9.23276 30.5242 9.21767C31.0712 9.25339 31.2781 9.36418 31.69 9.72545C32.1748 10.3545 32.1748 10.3545 32.1437 10.8647C32.1279 10.9693 32.1121 11.0738 32.0958 11.1816C32.0436 11.4826 32.0436 11.4826 32.0441 11.7566C32.3023 12.0373 32.3023 12.0373 32.6344 12.2345C32.9716 12.764 33.0549 13.1617 32.9886 13.7877C32.8146 14.2237 32.6345 14.5556 32.2802 14.863C32.4339 15.3504 32.4339 15.3504 32.6344 15.8188C32.6526 16.537 32.5534 17.1199 32.0976 17.6819C31.7074 18.064 31.3552 18.2006 30.8193 18.2307C30.7171 18.2233 30.6148 18.2159 30.5094 18.2083C30.5484 18.2872 30.5873 18.366 30.6275 18.4473C30.7123 19.3136 30.7345 20.051 30.2055 20.7673C29.8853 21.1268 29.6081 21.3865 29.1444 21.5238C28.8027 21.7012 28.7869 21.7892 28.6427 22.1361C28.42 22.6399 28.1682 22.8205 27.6729 23.0341C27.389 23.1228 27.1445 23.1442 26.8497 23.1069C26.8181 23.1981 26.7864 23.2892 26.7538 23.3832C26.6179 23.6944 26.5186 23.8529 26.2594 24.0627C25.7425 24.2371 25.2637 24.2713 24.7247 24.1822C24.2548 23.9124 23.9519 23.6278 23.7803 23.1069C23.7688 22.9226 23.7638 22.7378 23.7629 22.5531C23.7621 22.4394 23.7612 22.3257 23.7603 22.2085C23.76 22.084 23.7597 21.9594 23.7594 21.8311C23.7586 21.6997 23.7578 21.5683 23.757 21.433C23.7547 20.9973 23.7533 20.5617 23.7521 20.126C23.7517 19.9773 23.7512 19.8285 23.7507 19.6753C23.7485 18.9691 23.7468 18.2629 23.7458 17.5567C23.7446 16.743 23.7415 15.9293 23.7367 15.1156C23.7327 14.4098 23.7314 13.7039 23.7309 12.998C23.7303 12.6984 23.7289 12.3987 23.7267 12.099C23.7239 11.6792 23.724 11.2595 23.7248 10.8396C23.7233 10.7163 23.7218 10.5929 23.7202 10.4658C23.7255 9.72828 23.8154 9.13828 24.2525 8.53068C24.8001 8.08961 25.1921 7.9159 25.8831 7.96317C26.3278 7.97038 26.564 7.94147 26.9014 7.64207C27.0012 7.54104 27.101 7.44 27.2039 7.33591C27.7668 7.14602 28.3259 7.09037 28.8834 7.32891Z" fill="#080808"/>
<path d="M19.176 7.69426C19.4742 7.83103 19.7266 7.98991 20.0023 8.17216C19.9634 8.40873 19.9244 8.64529 19.8843 8.88903C19.9525 8.85453 20.0206 8.82003 20.0909 8.78448C20.1785 8.74013 20.2662 8.69577 20.3565 8.65007C20.4588 8.57984 20.4588 8.57984 20.5631 8.50819C20.967 8.36058 21.3646 8.40408 21.7732 8.5306C21.9614 8.66994 21.9614 8.66994 22.1273 8.88903C22.1723 9.20772 22.1723 9.20772 22.1732 9.59644C22.1743 9.74202 22.1754 9.8876 22.1766 10.0376C22.1758 10.1951 22.1751 10.3527 22.1744 10.515C22.1746 10.6786 22.175 10.8422 22.1754 11.0057C22.1759 11.3488 22.1752 11.6919 22.1735 12.035C22.1715 12.473 22.1727 12.911 22.1748 13.349C22.1761 13.6871 22.1756 14.0251 22.1747 14.3632C22.1744 14.6027 22.1755 14.8421 22.1766 15.0816C22.1707 15.8505 22.1649 16.4629 21.7732 17.1329C21.455 17.4028 21.2439 17.4809 20.8361 17.5511C20.4565 17.4884 20.1888 17.3942 19.9014 17.1278C19.5904 16.5898 19.6638 15.9344 19.7662 15.3408C20.0543 14.9389 20.3067 14.777 20.7107 14.5045C20.9777 14.5073 20.9777 14.5073 21.2641 14.5493C21.3595 14.5625 21.4549 14.5757 21.5532 14.5894C21.6621 14.6065 21.6621 14.6065 21.7732 14.6239C21.7732 14.4662 21.7732 14.3085 21.7732 14.146C20.6495 14.067 20.6495 14.067 19.6482 14.5045C19.1508 15.0185 18.8272 15.4058 18.7554 16.1323C18.7455 16.23 18.7356 16.3276 18.7254 16.4282C18.7147 16.5405 18.7147 16.5405 18.7037 16.655C18.6339 16.6768 18.564 16.6985 18.4921 16.7208C17.8906 16.9126 17.8906 16.9126 17.3387 17.2151C16.9309 17.4373 16.5539 17.4525 16.1065 17.3719C15.7401 17.1796 15.4906 17.0131 15.2359 16.6849C15.1067 16.2143 15.0608 15.6654 15.2801 15.2213C15.6308 15.2213 15.9814 15.2213 16.3426 15.2213C16.4011 15.3987 16.4011 15.3987 16.4607 15.5797C16.9813 15.8926 17.5286 15.8419 18.1135 15.8187C18.1524 15.5427 18.1914 15.2667 18.2315 14.9824C18.1504 14.9879 18.0693 14.9934 17.9857 14.9992C17.8262 15.0056 17.8262 15.0056 17.6634 15.0122C17.5579 15.0178 17.4525 15.0233 17.3438 15.029C17.051 14.9824 17.051 14.9824 16.8393 14.7602C16.6588 14.4363 16.6245 14.273 16.6968 13.9071C16.9919 13.6457 16.9919 13.6457 17.2871 13.4292C17.2871 13.3503 17.2871 13.2714 17.2871 13.1902C16.8545 13.2494 16.6132 13.3122 16.3426 13.6681C16.3037 13.7864 16.2647 13.9047 16.2246 14.0265C15.8483 14.1162 15.8483 14.1162 15.3982 14.146C15.0674 13.935 14.8651 13.7839 14.6899 13.4292C14.636 12.68 14.636 12.68 14.8374 12.3539C15.044 12.2344 15.044 12.2344 15.2728 12.2568C15.5163 12.3539 15.5163 12.3539 15.7228 12.4808C16.3094 12.7281 16.7981 12.646 17.3682 12.4211C17.807 12.1402 17.9816 11.7525 18.2108 11.294C18.4011 10.9453 18.5973 10.7562 18.9399 10.5617C19.3068 10.4906 19.5255 10.4834 19.8465 10.6882C20.1074 10.9011 20.3234 11.0921 20.4746 11.398C20.4904 11.7173 20.4797 12.034 20.4746 12.3539C20.5914 12.3144 20.7083 12.275 20.8287 12.2344C20.8884 11.3342 20.8884 11.3342 20.4746 10.5617C20.0242 10.1612 19.5826 10.1414 19.0058 10.1622C18.1865 10.2736 17.6876 10.6903 17.1958 11.3397C17.051 11.5175 17.051 11.5175 16.8149 11.637C16.3664 11.679 16.0896 11.7 15.7007 11.4578C15.477 11.0955 15.4407 10.8531 15.4632 10.431C15.5163 10.2033 15.5163 10.2033 15.7671 9.90458C16.1507 9.70205 16.3883 9.68521 16.8149 9.72537C16.866 9.84118 16.9171 9.957 16.9698 10.0763C17.1338 10.4754 17.1338 10.4754 17.5232 10.5617C17.4842 10.441 17.4453 10.3202 17.4051 10.1958C17.2399 9.59898 17.2133 9.10061 17.4199 8.50819C17.8707 7.82383 18.3715 7.57999 19.176 7.69426Z" fill="#F9F9F9"/>
<path d="M28.7384 7.81368C29.1253 8.03063 29.3818 8.30532 29.6164 8.68736C29.7386 9.27809 29.6126 9.86671 29.4467 10.4422C29.5636 10.4816 29.6805 10.521 29.8009 10.5617C29.8788 10.3251 29.9567 10.0885 30.037 9.84479C30.4256 9.71757 30.615 9.72149 31.011 9.84479C31.3356 10.0837 31.3356 10.0837 31.4611 10.487C31.453 10.9583 31.3859 11.1525 31.0995 11.5175C30.729 11.705 30.4457 11.679 30.037 11.637C29.7345 11.3756 29.7345 11.3756 29.4467 11.0396C28.79 10.4157 28.2496 10.1416 27.3471 10.1659C26.9257 10.2261 26.6892 10.3956 26.3773 10.6811C25.9938 11.2504 25.9892 11.6888 26.0231 12.3538C26.1985 12.2947 26.1985 12.2947 26.3773 12.2343C26.3875 12.1536 26.3977 12.0729 26.4082 11.9898C26.5432 11.1225 26.5432 11.1225 26.879 10.7259C27.2729 10.5266 27.4769 10.4898 27.912 10.5617C28.5153 10.8547 28.7144 11.1776 28.9741 11.7681C29.1857 12.174 29.5225 12.3922 29.919 12.5928C30.6066 12.6399 30.6066 12.6399 31.2397 12.3986C31.5717 12.2343 31.5717 12.2343 31.9111 12.3314C31.9939 12.3782 32.0767 12.4251 32.162 12.4733C32.3199 13.2141 32.3199 13.2141 32.1399 13.6457C31.8399 14.0121 31.6168 14.1079 31.1659 14.2132C30.7967 14.1312 30.7747 14.0533 30.5756 13.7427C30.5279 13.6665 30.4801 13.5903 30.4308 13.5117C30.1955 13.2102 29.9268 13.1473 29.5648 13.0707C29.7265 13.4484 29.7996 13.5477 30.1551 13.7875C30.2335 14.5155 30.2335 14.5155 30.0098 14.8246C29.7485 15.0219 29.5705 15.0408 29.2475 15.0645C29.1044 15.0762 29.1044 15.0762 28.9584 15.0883C28.8858 15.0927 28.8132 15.0972 28.7384 15.1018C28.7384 15.3384 28.7384 15.5749 28.7384 15.8186C29.4595 15.907 29.4595 15.907 30.1219 15.6856C30.1767 15.631 30.2314 15.5763 30.2879 15.52C30.6391 15.2109 30.6948 15.1761 31.129 15.169C31.5717 15.2213 31.5717 15.2213 31.8078 15.4602C31.8654 15.9648 31.841 16.2343 31.6012 16.6849C31.0681 17.3443 31.0681 17.3443 30.6139 17.4055C30.043 17.4282 29.7753 17.3806 29.3287 17.0134C28.9786 16.9112 28.6245 16.8403 28.2662 16.7745C28.2574 16.6907 28.2485 16.6069 28.2394 16.5206C28.1255 15.6885 27.9354 15.0896 27.3217 14.5044C26.6655 14.0957 26.061 14.1049 25.3148 14.146C25.2759 14.2643 25.2369 14.3825 25.1968 14.5044C25.338 14.4945 25.4792 14.4847 25.6247 14.4745C26.1546 14.4745 26.4393 14.6347 26.8495 14.9823C27.2737 15.4546 27.2691 15.8416 27.2544 16.4594C27.2037 16.7745 27.2037 16.7745 26.9233 17.1478C26.4707 17.475 26.2288 17.5469 25.669 17.4913C25.1952 17.1971 25.0092 16.9448 24.8426 16.416C24.8102 16.0563 24.8102 16.0563 24.8064 15.652C24.8036 15.4241 24.8036 15.4241 24.8007 15.1917C24.7999 15.027 24.7993 14.8623 24.7988 14.6976C24.7977 14.5279 24.7966 14.3582 24.7956 14.1884C24.7936 13.8335 24.7927 13.4786 24.7924 13.1237C24.7917 12.6687 24.7873 12.2139 24.7819 11.7589C24.7784 11.4088 24.7775 11.0587 24.7774 10.7086C24.7769 10.5408 24.7754 10.373 24.773 10.2052C24.7698 9.97107 24.7707 9.73684 24.7718 9.50264C24.7712 9.3694 24.7706 9.23616 24.77 9.09888C24.8426 8.7695 24.8426 8.7695 25.1267 8.54581C25.5767 8.34779 25.913 8.39756 26.3773 8.53055C26.6577 8.71723 26.6577 8.71723 26.8495 8.88898C26.9274 8.88898 27.0054 8.88898 27.0856 8.88898C27.0467 8.65241 27.0077 8.41585 26.9676 8.17212C27.5544 7.6696 27.9957 7.58106 28.7384 7.81368Z" fill="#FAFAFA"/>
<path d="M4.53735 25.8547C5.04381 25.8547 5.55027 25.8547 6.07207 25.8547C6.07207 26.5644 6.07207 27.2741 6.07207 28.0053C6.2279 28.0053 6.38374 28.0053 6.54429 28.0053C6.54429 27.2956 6.54429 26.5859 6.54429 25.8547C7.05075 25.8547 7.5572 25.8547 8.07901 25.8547C8.07901 27.8261 8.07901 29.7975 8.07901 31.8286C7.57255 31.8286 7.06609 31.8286 6.54429 31.8286C6.54429 31.0006 6.54429 30.1726 6.54429 29.3196C6.38846 29.3196 6.23263 29.3196 6.07207 29.3196C6.07207 30.1475 6.07207 30.9755 6.07207 31.8286C5.56561 31.8286 5.05916 31.8286 4.53735 31.8286C4.53735 29.8572 4.53735 27.8858 4.53735 25.8547Z" fill="#0AAE0B"/>
<path d="M22.4817 25.8547C22.9102 25.8547 23.3388 25.8547 23.7803 25.8547C24.014 26.525 24.2478 27.1953 24.4886 27.8858C24.5276 27.2156 24.5665 26.5453 24.6067 25.8547C25.0352 25.8547 25.4638 25.8547 25.9053 25.8547C25.9053 27.8261 25.9053 29.7975 25.9053 31.8286C25.4767 31.8286 25.0482 31.8286 24.6067 31.8286C24.3057 31.0975 24.0907 30.4568 23.8984 29.678C23.8594 30.3877 23.8204 31.0974 23.7803 31.8286C23.3518 31.8286 22.9232 31.8286 22.4817 31.8286C22.4817 29.8572 22.4817 27.8858 22.4817 25.8547Z" fill="#080808"/>
<path d="M15.5161 25.8547C16.0226 25.8547 16.529 25.8547 17.0508 25.8547C17.0898 26.4067 17.1287 26.9587 17.1689 27.5274C17.3247 26.9754 17.4806 26.4234 17.6411 25.8547C18.1086 25.8547 18.5761 25.8547 19.0578 25.8547C18.8627 26.8256 18.8627 26.8256 18.6842 27.2801C18.2353 28.4555 18.443 29.2453 18.8217 30.3949C18.8586 30.5096 18.8956 30.6243 18.9337 30.7426C19.0137 30.9853 19.0946 31.2278 19.1758 31.4702C19.1758 31.5884 19.1758 31.7067 19.1758 31.8286C18.6694 31.8286 18.1629 31.8286 17.6411 31.8286C17.4853 31.2372 17.3294 30.6458 17.1689 30.0364C17.1299 30.6278 17.091 31.2193 17.0508 31.8286C16.5444 31.8286 16.0379 31.8286 15.5161 31.8286C15.5161 29.8572 15.5161 27.8858 15.5161 25.8547Z" fill="#09AD0A"/>
<path d="M8.66908 25.8547C9.17554 25.8547 9.68199 25.8547 10.2038 25.8547C10.2038 27.5107 10.2038 29.1666 10.2038 30.8728C10.3207 30.8728 10.4375 30.8728 10.558 30.8728C10.5969 29.2562 10.6359 27.6397 10.676 25.9742C11.1435 25.9742 11.611 25.9742 12.0927 25.9742C12.1014 26.6609 12.1079 27.3476 12.1121 28.0343C12.1139 28.2678 12.1163 28.5013 12.1194 28.7348C12.1237 29.0708 12.1257 29.4068 12.1273 29.7429C12.1291 29.8469 12.1309 29.951 12.1328 30.0582C12.133 30.6299 12.1044 31.005 11.7385 31.4702C11.2418 31.9101 10.7789 31.9965 10.1355 31.9901C9.65078 31.9189 9.26464 31.6822 8.90519 31.3507C8.70256 31.0069 8.6399 30.7563 8.64228 30.3579C8.64229 30.2575 8.64231 30.157 8.64233 30.0535C8.64355 29.9463 8.64477 29.839 8.64602 29.7284C8.64636 29.6177 8.64669 29.507 8.64704 29.3929C8.64836 29.0399 8.65132 28.6869 8.65432 28.3339C8.65551 28.0943 8.65659 27.8547 8.65755 27.6152C8.66015 27.0283 8.66423 26.4415 8.66908 25.8547Z" fill="#06AC07"/>
<path d="M38.8912 25.8547C39.3198 25.8547 39.7483 25.8547 40.1898 25.8547C40.4236 26.6039 40.6573 27.353 40.8982 28.1248C40.9371 27.4151 40.9761 26.7054 41.0162 25.9742C41.4058 25.9742 41.7954 25.9742 42.1968 25.9742C42.1968 27.8667 42.1968 29.7592 42.1968 31.7091C41.7682 31.7091 41.3397 31.7091 40.8982 31.7091C40.6153 30.9458 40.3865 30.235 40.1898 29.439C40.1509 30.1882 40.1119 30.9373 40.0718 31.7091C39.6822 31.7091 39.2926 31.7091 38.8912 31.7091C38.8912 29.7772 38.8912 27.8452 38.8912 25.8547Z" fill="#020202"/>
<path d="M29.3285 26.0938C29.5646 26.288 29.5646 26.288 29.6827 26.5717C29.7094 26.9358 29.6986 27.2808 29.6827 27.647C29.2152 27.647 28.7477 27.647 28.266 27.647C28.266 27.371 28.266 27.095 28.266 26.8107C28.1491 26.8501 28.0322 26.8895 27.9118 26.9301C27.8544 27.2649 27.8544 27.2649 27.9118 27.647C28.2083 27.9556 28.2083 27.9556 28.598 28.2071C29.6337 28.9321 29.6337 28.9321 29.8007 29.4392C29.8179 29.6927 29.8268 29.9468 29.8302 30.2008C29.8333 30.3348 29.8363 30.4688 29.8394 30.6069C29.7966 31.0335 29.6984 31.2489 29.4465 31.5898C28.8586 32.0106 28.2538 32.0609 27.5577 31.9482C27.0979 31.7812 26.7242 31.5787 26.5025 31.1235C26.3668 30.6263 26.3771 30.2048 26.3771 29.6781C26.8446 29.6781 27.3121 29.6781 27.7938 29.6781C27.8327 30.033 27.8717 30.3878 27.9118 30.7534C28.0287 30.7534 28.1456 30.7534 28.266 30.7534C28.3829 30.2645 28.3829 30.2645 28.266 29.7976C27.9573 29.5412 27.6541 29.3295 27.3083 29.1298C26.7585 28.7996 26.5661 28.499 26.3771 27.886C26.2982 27.3456 26.3187 26.8547 26.5025 26.3402C27.287 25.4951 28.3896 25.6016 29.3285 26.0938Z" fill="#060606"/>
<path d="M19.412 25.8547C20.2691 25.8547 21.1261 25.8547 22.0092 25.8547C22.0092 26.249 22.0092 26.6433 22.0092 27.0495C21.6586 27.0495 21.308 27.0495 20.9467 27.0495C20.9467 27.4438 20.9467 27.8381 20.9467 28.2443C21.2584 28.2443 21.57 28.2443 21.8911 28.2443C21.8911 28.5991 21.8911 28.954 21.8911 29.3196C21.5795 29.3196 21.2678 29.3196 20.9467 29.3196C20.9467 29.7533 20.9467 30.187 20.9467 30.6338C21.3363 30.6338 21.7259 30.6338 22.1273 30.6338C22.1273 31.0281 22.1273 31.4224 22.1273 31.8286C21.2312 31.8286 20.3352 31.8286 19.412 31.8286C19.412 29.8572 19.412 27.8858 19.412 25.8547Z" fill="#0C0C0C"/>
<path d="M33.6968 25.8547C34.5539 25.8547 35.4109 25.8547 36.294 25.8547C36.294 26.249 36.294 26.6433 36.294 27.0495C35.9434 27.0495 35.5927 27.0495 35.2315 27.0495C35.2315 27.4438 35.2315 27.8381 35.2315 28.2443C35.5432 28.2443 35.8548 28.2443 36.1759 28.2443C36.1759 28.5991 36.1759 28.954 36.1759 29.3196C35.8643 29.3196 35.5526 29.3196 35.2315 29.3196C35.2315 29.7533 35.2315 30.187 35.2315 30.6338C35.5821 30.6338 35.9327 30.6338 36.294 30.6338C36.294 31.0281 36.294 31.4224 36.294 31.8286C35.4369 31.8286 34.5798 31.8286 33.6968 31.8286C33.6968 29.8572 33.6968 27.8858 33.6968 25.8547Z" fill="#080808"/>
<path d="M30.0371 25.8547C31.1279 25.8547 32.2188 25.8547 33.3427 25.8547C33.3427 26.249 33.3427 26.6433 33.3427 27.0495C33.031 27.0495 32.7193 27.0495 32.3982 27.0495C32.3982 28.5872 32.3982 30.1248 32.3982 31.7091C31.9307 31.7091 31.4632 31.7091 30.9816 31.7091C30.9816 30.1714 30.9816 28.6338 30.9816 27.0495C30.6699 27.0495 30.3582 27.0495 30.0371 27.0495C30.0371 26.6552 30.0371 26.261 30.0371 25.8547Z" fill="#040404"/>
<path d="M12.683 25.8547C13.1894 25.8547 13.6959 25.8547 14.2177 25.8547C14.2177 27.4318 14.2177 29.0089 14.2177 30.6338C14.5294 30.6338 14.841 30.6338 15.1621 30.6338C15.1621 31.0281 15.1621 31.4224 15.1621 31.8286C14.344 31.8286 13.5259 31.8286 12.683 31.8286C12.683 29.8572 12.683 27.8858 12.683 25.8547Z" fill="#0AAE0B"/>
<path d="M22.1274 18.3279C22.1362 18.8955 22.1426 19.463 22.1469 20.0306C22.1487 20.2236 22.1511 20.4165 22.1542 20.6095C22.1585 20.8874 22.1605 21.1652 22.162 21.4432C22.1639 21.5289 22.1657 21.6147 22.1676 21.7031C22.1677 22.2356 22.0909 22.5614 21.7733 22.9875C21.5372 23.2264 21.5372 23.2264 21.1904 23.2638C20.8288 23.2264 20.8288 23.2264 20.6149 23.0771C20.4613 22.848 20.4162 22.6579 20.3566 22.3901C20.2498 22.3788 20.2498 22.3788 20.1408 22.3672C19.391 22.251 19.391 22.251 19.1184 21.9701C18.8765 21.5605 18.7417 21.191 18.8219 20.7174C18.8998 20.6386 18.9777 20.5597 19.058 20.4785C19.4122 20.4785 19.4122 20.4785 19.7147 20.7697C19.8097 20.8707 19.9046 20.9718 20.0025 21.0759C20.2864 21.2196 20.4688 21.2074 20.7846 21.2028C20.8811 21.2017 20.9775 21.2006 21.0769 21.1995C21.1509 21.1981 21.2249 21.1968 21.3011 21.1953C21.3011 20.8799 21.3011 20.5645 21.3011 20.2395C21.155 20.2444 21.0089 20.2494 20.8584 20.2544C20.4743 20.2544 20.2053 20.2344 19.8844 20.0006C19.7167 19.6611 19.7292 19.4205 19.7663 19.0447C20.0227 18.7035 20.1665 18.5811 20.5863 18.4982C20.7721 18.4915 20.7721 18.4915 20.9617 18.4847C21.3707 18.467 21.7418 18.3279 22.1274 18.3279Z" fill="#F7F7F7"/>
<path d="M36.7661 25.8547C37.2726 25.8547 37.779 25.8547 38.3008 25.8547C38.3008 27.8261 38.3008 29.7975 38.3008 31.8286C37.7944 31.8286 37.2879 31.8286 36.7661 31.8286C36.7661 29.8572 36.7661 27.8858 36.7661 25.8547Z" fill="#080808"/>
<path d="M24.8425 18.3279C24.9594 18.3673 25.0763 18.4067 25.1967 18.4474C25.4278 18.4594 25.659 18.4691 25.8903 18.4772C26.3873 18.5162 26.578 18.5421 26.997 18.8357C27.2226 19.1944 27.2899 19.347 27.2036 19.7616C27.0611 19.9572 27.0611 19.9572 26.8495 20.12C26.5566 20.155 26.5566 20.155 26.237 20.1424C26.1307 20.1392 26.0243 20.136 25.9147 20.1326C25.8336 20.1285 25.7525 20.1243 25.6689 20.12C25.6263 20.2766 25.5846 20.4335 25.5435 20.5905C25.5202 20.6778 25.4969 20.7651 25.4729 20.8551C25.4597 20.9279 25.4464 21.0008 25.4328 21.0759C25.617 21.2623 25.7975 21.2201 26.0526 21.2252C26.5345 21.2198 26.8178 21.147 27.2036 20.8369C27.2645 20.7679 27.3254 20.6989 27.3881 20.6278C27.4441 20.5785 27.5001 20.5292 27.5578 20.4785C27.816 20.5158 27.816 20.5158 28.03 20.5979C28.1091 21.526 28.1091 21.526 27.7865 21.9645C27.4397 22.2706 27.4397 22.2706 27.0118 22.3304C26.8146 22.3599 26.8146 22.3599 26.6133 22.3901C26.383 22.7367 26.383 22.7367 26.2592 23.107C26.1411 23.2264 26.1411 23.2264 25.8091 23.2638C25.4328 23.2264 25.4328 23.2264 25.1598 23.0024C24.7933 22.5354 24.8271 22.1461 24.831 21.5715C24.8312 21.479 24.8313 21.3865 24.8315 21.2913C24.8322 20.9954 24.8336 20.6996 24.8351 20.4038C24.8357 20.2034 24.8363 20.003 24.8368 19.8027C24.8381 19.3111 24.8401 18.8195 24.8425 18.3279Z" fill="#FAFAFA"/>
<path d="M8.63962 0.00291842C8.85534 0.00314944 8.85534 0.00314944 9.07541 0.00338513C10.205 0.0147293 10.205 0.0147293 10.6761 0.286677C10.7596 0.30177 10.8432 0.316863 10.9292 0.332414C11.1483 0.406154 11.1483 0.406154 11.2677 0.606838C11.4888 1.33363 11.5799 2.03701 11.6205 2.7957C11.5036 2.87455 11.3868 2.95341 11.2663 3.03465C11.252 2.93947 11.2377 2.84429 11.223 2.74622C11.1102 1.78147 11.1102 1.78147 10.7941 0.884062C10.0504 0.582551 9.29907 0.601249 8.50681 0.600304C8.37867 0.597378 8.25054 0.594451 8.11852 0.591436C7.30662 0.588459 6.64562 0.669038 5.95387 1.12302C5.69167 1.37209 5.69167 1.37209 5.52592 1.66813C5.45956 1.77317 5.39321 1.8782 5.32485 1.98642C5.25972 2.09577 5.19459 2.20512 5.12748 2.31779C4.64029 3.11728 4.13403 3.8557 3.53835 4.57665C3.17793 5.01658 2.8347 5.46932 2.49337 5.9245C2.40419 6.04156 2.40419 6.04156 2.31321 6.16098C1.70946 6.97115 1.318 7.77362 1.09147 8.76208C1.07172 8.84479 1.05198 8.92749 1.03163 9.0127C0.893508 9.6087 0.802487 10.1907 0.759439 10.8007C0.720481 10.7218 0.681522 10.643 0.641384 10.5617C0.563467 10.5223 0.485551 10.4829 0.405273 10.4422C0.770389 7.90671 1.72256 6.27609 3.32207 4.3307C3.99655 3.48295 4.6244 2.59482 5.16437 1.6532C6.01334 0.190894 7.05976 -0.0296421 8.63962 0.00291842Z" fill="#070907"/>
<path d="M40.5185 0.592359C41.3837 1.16224 41.8496 2.02927 42.3428 2.91983C42.6732 3.48177 43.0811 3.96816 43.4952 4.46836C45.0729 6.37424 46.3444 8.21957 46.4466 10.8007C46.3297 10.8598 46.3297 10.8598 46.2105 10.9201C46.1963 10.848 46.1821 10.7759 46.1675 10.7016C45.6844 8.28854 44.8815 6.70404 43.3264 4.84173C42.5981 3.96433 42.026 3.03351 41.4495 2.05035C41.044 1.41146 40.5163 1.1074 39.798 0.939619C39.2759 0.847996 38.7556 0.862014 38.227 0.861649C38.0581 0.859455 38.0581 0.859455 37.8857 0.857216C37.7777 0.856985 37.6696 0.856754 37.5583 0.856516C37.4601 0.856025 37.3618 0.855534 37.2606 0.855028C36.9677 0.867643 36.9677 0.867643 36.648 1.12301C36.3307 1.13794 36.3307 1.13794 36.0577 1.12301C36.0349 1.25823 36.0121 1.39345 35.9886 1.53277C35.9576 1.70982 35.9265 1.88686 35.8954 2.06389C35.8805 2.15306 35.8656 2.24224 35.8502 2.33411C35.7303 3.00757 35.7303 3.00757 35.4675 3.27359C35.2793 3.08321 35.3248 2.88747 35.3199 2.62394C35.3272 1.98169 35.4098 1.34141 35.7036 0.764574C36.8729 -0.053848 39.2641 0.0168045 40.5185 0.592359Z" fill="#0D120D"/>
<path d="M15.0439 7.69409C15.2387 7.69409 15.4335 7.69409 15.6342 7.69409C15.5719 7.77472 15.5719 7.77472 15.5083 7.85697C14.272 9.48713 13.5201 11.0397 13.155 13.0706C13.0771 13.0706 12.9992 13.0706 12.9189 13.0706C12.9559 13.1696 12.9929 13.2686 13.031 13.3707C13.1651 13.8215 13.2115 14.2548 13.2509 14.7208C13.3266 15.4765 13.465 16.1881 13.6789 16.9162C13.7031 16.9991 13.7274 17.082 13.7523 17.1675C13.8698 17.5492 14.0044 17.8952 14.1848 18.2515C14.2594 18.4074 14.2594 18.4074 14.3356 18.5665C14.2966 18.6454 14.2576 18.7242 14.2175 18.8055C13.2684 17.2659 12.7987 15.5068 12.6459 13.7127C12.5483 13.228 12.3845 12.9835 12.0925 12.5927C11.6245 12.6776 11.1808 12.8065 10.7275 12.9511C10.4744 13.0316 10.2211 13.1114 9.96752 13.19C9.89158 13.2145 9.81565 13.239 9.73741 13.2642C9.37077 13.3328 9.01162 13.3205 8.6394 13.317C8.49026 13.3159 8.34113 13.3148 8.18747 13.3137C8.07364 13.3123 7.95981 13.3109 7.84253 13.3095C7.84253 13.2701 7.84253 13.2307 7.84253 13.19C7.98086 13.1697 8.11919 13.1494 8.26172 13.1284C9.31363 12.9668 10.2784 12.768 11.2661 12.3537C11.5018 12.2728 11.7377 12.1925 11.9745 12.1147C11.9355 12.0359 11.8965 11.957 11.8564 11.8758C11.8517 11.6369 11.8513 11.3978 11.8564 11.1589C12.0549 11.4603 12.1989 11.7337 12.3434 12.0625C12.3851 12.1563 12.4268 12.2501 12.4697 12.3467C12.5647 12.5927 12.5647 12.5927 12.5647 12.8316C12.6427 12.8316 12.7206 12.8316 12.8008 12.8316C12.7935 12.7183 12.7862 12.6049 12.7787 12.4881C12.7912 10.9081 13.753 9.31985 14.7368 8.15893C14.9325 7.9432 14.9325 7.9432 15.0439 7.69409Z" fill="#060E06"/>
<path d="M31.3357 8.05249C31.7643 8.08033 31.9093 8.15494 32.217 8.46879C32.3164 8.59718 32.4136 8.72737 32.5089 8.85896C32.5602 8.92858 32.6115 8.99821 32.6643 9.06994C33.5071 10.2506 33.9356 11.5553 34.2871 12.9511C34.3839 12.7648 34.4796 12.578 34.5748 12.391C34.6282 12.287 34.6817 12.1831 34.7367 12.076C34.8726 11.767 34.9438 11.4918 34.9954 11.1589C35.0344 11.1589 35.0733 11.1589 35.1135 11.1589C35.0745 11.5926 35.0355 12.0263 34.9954 12.4731C35.0992 12.5076 35.203 12.5421 35.3099 12.5777C35.5467 12.6585 35.7826 12.7422 36.0164 12.8316C37.0035 13.198 37.9698 13.3275 39.0093 13.429C38.3793 13.82 37.7017 13.6654 37.0023 13.5484C36.2331 13.3487 35.4601 13.0924 34.7593 12.7121C34.7082 12.8452 34.7082 12.8452 34.656 12.9809C34.5232 13.3095 34.5232 13.3095 34.4016 13.5357C34.2778 13.8078 34.2411 14.0227 34.2114 14.3199C34.1941 14.4737 34.1941 14.4737 34.1764 14.6306C34.1642 14.7393 34.1521 14.8479 34.1395 14.9598C33.9955 16.1026 33.7151 17.0491 33.2246 18.0886C33.1748 18.1948 33.125 18.3011 33.0738 18.4106C32.9706 18.6239 32.8623 18.8346 32.7524 19.0444C32.7134 18.9655 32.6744 18.8867 32.6343 18.8054C32.7347 18.5087 32.8426 18.222 32.959 17.9318C33.5966 16.2669 34.1359 14.3472 33.5787 12.5926C33.5344 12.3736 33.4901 12.1546 33.4459 11.9355C33.1157 10.5953 32.3914 9.42261 31.5091 8.38199C31.3357 8.17197 31.3357 8.17197 31.3357 8.05249Z" fill="#020F02"/>
<path d="M28.517 17.2077C29.0517 17.337 29.2653 17.6389 29.5647 18.0889C29.7683 18.501 29.7261 18.9517 29.6828 19.4031C29.4958 19.8383 29.2745 20.1349 28.8564 20.359C28.3998 20.3359 28.1295 20.1873 27.7939 19.881C27.6786 19.6015 27.6786 19.6015 27.602 19.2911C27.5033 18.9013 27.3937 18.5627 27.2036 18.2084C27.9251 17.1656 27.9251 17.1656 28.517 17.2077Z" fill="#FAFAFA"/>
<path d="M18.5489 17.1479C18.94 17.2525 18.94 17.2525 19.2056 17.596C19.2738 17.7192 19.342 17.8424 19.4122 17.9694C19.5291 18.0482 19.646 18.1271 19.7664 18.2083C19.6243 18.5062 19.4766 18.7676 19.2942 19.0446C19.282 19.1802 19.2698 19.3157 19.2573 19.4554C19.1761 19.881 19.1761 19.881 18.9105 20.1722C18.549 20.3801 18.4009 20.4512 17.9956 20.3589C17.6098 20.0217 17.3227 19.7652 17.2466 19.2453C17.2108 18.595 17.2377 18.1685 17.6488 17.6483C17.9678 17.3313 18.1001 17.2557 18.5489 17.1479Z" fill="#FAFAFA"/>
<path d="M46.4468 10.8008C46.6903 10.9875 46.6903 10.9875 46.9191 11.2787C46.9436 11.9253 46.7176 12.35 46.3242 12.8352C44.5022 14.6901 40.922 15.5125 38.4338 15.55C37.217 15.5395 36.1223 15.1814 34.9955 14.7435C34.9955 14.6647 34.9955 14.5858 34.9955 14.5046C35.613 14.4787 36.1341 14.5706 36.722 14.7435C39.4813 15.4841 42.7639 14.5774 45.1934 13.1628C45.6935 12.8206 46.173 12.4304 46.4468 11.8761C46.455 11.6921 46.4568 11.5077 46.4542 11.3235C46.4531 11.2258 46.4521 11.1282 46.451 11.0276C46.4496 10.9528 46.4482 10.8779 46.4468 10.8008Z" fill="#0A100A"/>
<path d="M0.169472 10.6812C0.247389 10.7206 0.325305 10.76 0.405583 10.8006C0.388538 10.8992 0.371494 10.9978 0.353934 11.0993C0.442618 11.8173 0.935969 12.2292 1.47361 12.6726C2.44015 13.367 3.55038 13.7475 4.67032 14.1087C4.74498 14.1328 4.81963 14.157 4.89655 14.182C5.96396 14.5142 6.99143 14.6702 8.10868 14.6687C8.28638 14.6689 8.28638 14.6689 8.46766 14.6692C9.31134 14.6571 10.0172 14.5431 10.8133 14.2505C11.1775 14.137 11.4781 14.1278 11.8569 14.146C11.7985 14.3234 11.7985 14.3234 11.7389 14.5044C11.4424 14.6398 11.4424 14.6398 11.0674 14.7583C10.9452 14.798 10.823 14.8378 10.6971 14.8787C7.80516 15.6779 4.47062 14.8801 1.87897 13.48C1.1162 13.0363 0.464207 12.5711 0.0514173 11.7564C-0.0107583 11.4067 0.00788909 11.1593 0.0514173 10.8006C0.0903755 10.7612 0.129334 10.7218 0.169472 10.6812Z" fill="#080E08"/>
<path d="M5.83581 0.64502C5.91373 0.684447 5.99164 0.723874 6.07192 0.764497C5.89661 0.882779 5.89661 0.882779 5.71776 1.00345C5.75671 0.885169 5.79567 0.766886 5.83581 0.64502ZM5.5997 1.00345C5.71776 1.36188 5.71776 1.36188 5.63256 1.57534C5.5858 1.65368 5.53904 1.73201 5.49087 1.81272C5.43859 1.90062 5.38632 1.98851 5.33246 2.07907C5.27456 2.1726 5.21665 2.26613 5.15699 2.3625C5.09787 2.45919 5.03875 2.55589 4.97784 2.65551C4.56605 3.31394 4.11845 3.91168 3.60968 4.49515C3.18797 4.979 2.79815 5.47997 2.41959 5.99909C2.36663 6.07058 2.31367 6.14207 2.25911 6.21573C1.6869 7.00794 1.31049 7.8063 1.09147 8.762C1.07172 8.8447 1.05198 8.92741 1.03163 9.01262C0.893508 9.60861 0.802487 10.1906 0.759439 10.8006C0.720481 10.7217 0.681523 10.6429 0.641384 10.5616C0.563467 10.5222 0.485551 10.4828 0.405273 10.4421C0.770389 7.90662 1.72256 6.276 3.32207 4.33061C4.07407 3.38544 4.75827 2.38881 5.35667 1.33715C5.48165 1.12293 5.48165 1.12293 5.5997 1.00345Z" fill="#0D170D"/>
<path d="M31.3357 8.05249C31.7643 8.08033 31.9093 8.15494 32.217 8.46879C32.3164 8.59722 32.4136 8.7274 32.5089 8.85896C32.56 8.92798 32.6111 8.997 32.6638 9.0681C33.515 10.2558 34.0916 11.5831 34.0657 13.0631C34.0647 13.1448 34.0636 13.2265 34.0625 13.3106C34.0597 13.5094 34.0555 13.7081 34.051 13.9069C33.7836 13.3858 33.6303 12.8572 33.5183 12.2827C33.2078 10.7936 32.4832 9.53089 31.5091 8.38199C31.3357 8.17197 31.3357 8.17197 31.3357 8.05249Z" fill="#0B110B"/>
<path d="M42.0787 2.67627C42.9641 3.79637 42.9641 3.79637 43.2113 4.11093C43.4182 4.37133 43.6271 4.62909 43.8385 4.88566C45.2872 6.65684 46.3531 8.43451 46.4468 10.8007C46.3299 10.8599 46.3299 10.8599 46.2107 10.9202C46.1965 10.8481 46.1823 10.776 46.1677 10.7017C45.7207 8.46905 45.0452 6.92972 43.6135 5.18529C42.0787 3.30124 42.0787 3.30124 42.0787 2.67627Z" fill="#141B14"/>
<path d="M10.5578 11.2786C9.32206 11.9501 8.23181 12.3546 6.83911 11.9357C6.6616 11.8773 6.48436 11.818 6.30786 11.7565C6.30786 11.7171 6.30786 11.6777 6.30786 11.637C6.41475 11.6344 6.41475 11.6344 6.5238 11.6318C8.32572 11.596 8.32572 11.596 10.0801 11.2217C10.3217 11.1591 10.3217 11.1591 10.5578 11.2786Z" fill="#002100"/>
<path d="M11.8564 11.1592C12.0678 11.4801 12.1705 11.7163 12.2844 12.0777C12.3305 12.2225 12.3305 12.2225 12.3775 12.3703C12.4003 12.4437 12.4232 12.5172 12.4467 12.5929C12.3542 12.583 12.2616 12.5732 12.1663 12.563C11.7621 12.5912 11.5366 12.6607 11.1702 12.8169C10.0469 13.2933 9.05925 13.3413 7.84253 13.3098C7.84253 13.2703 7.84253 13.2309 7.84253 13.1903C7.98086 13.17 8.11919 13.1496 8.26172 13.1287C9.31363 12.9671 10.2784 12.7683 11.2661 12.354C11.5018 12.2731 11.7377 12.1927 11.9745 12.115C11.916 11.9967 11.916 11.9967 11.8564 11.876C11.8517 11.6371 11.8513 11.3981 11.8564 11.1592Z" fill="#001C00"/>
<path d="M34.9956 11.1592C35.0346 11.1592 35.0735 11.1592 35.1137 11.1592C35.0747 11.5929 35.0358 12.0266 34.9956 12.4734C35.1513 12.5252 35.1513 12.5252 35.3101 12.578C35.5469 12.6588 35.7828 12.7425 36.0166 12.8319C37.0037 13.1982 37.9701 13.3278 39.0095 13.4292C38.3795 13.8203 37.7019 13.6657 37.0026 13.5487C36.2333 13.349 35.4604 13.0927 34.7595 12.7124C34.7206 12.7912 34.6816 12.8701 34.6415 12.9513C34.4764 12.4501 34.6683 12.229 34.8776 11.7566C34.9592 11.4246 34.9592 11.4246 34.9956 11.1592Z" fill="#001A00"/>
<path d="M36.1761 11.3979C36.2906 11.4324 36.405 11.4669 36.5229 11.5025C37.4572 11.7693 38.3404 11.9159 39.312 11.9505C39.4198 11.9552 39.5276 11.9598 39.6387 11.9645C39.9012 11.9757 40.1636 11.9859 40.4261 11.9953C39.7382 12.4595 38.989 12.425 38.1831 12.3538C37.4596 12.1775 36.7987 11.9348 36.1761 11.5174C36.1761 11.478 36.1761 11.4386 36.1761 11.3979Z" fill="#000500"/>
<path d="M10.5581 1.60083C10.8369 2.1651 10.9516 2.64211 10.9123 3.27351C10.6762 3.64688 10.6762 3.64688 10.322 3.87089C9.87192 3.90823 9.87192 3.90823 9.49562 3.87089C9.45666 3.79204 9.4177 3.71319 9.37756 3.63194C9.49079 3.5765 9.49079 3.5765 9.6063 3.51993C9.84224 3.41276 9.84224 3.41276 9.96784 3.27351C9.95719 3.01179 9.93872 2.75038 9.91619 2.48944C9.89816 2.27482 9.89816 2.27482 9.87976 2.05587C9.86987 1.94513 9.85998 1.8344 9.84978 1.72031C10.1457 2.07033 10.2518 2.30716 10.2851 2.76573C10.2929 2.86122 10.3006 2.95671 10.3086 3.05509C10.313 3.12717 10.3175 3.19925 10.322 3.27351C10.4389 3.27351 10.5558 3.27351 10.6762 3.27351C10.6372 2.72153 10.5983 2.16954 10.5581 1.60083Z" fill="#002400"/>
<path d="M46.4466 10.8008C46.6901 10.9875 46.6901 10.9875 46.9188 11.2787C46.944 11.9429 46.6968 12.3491 46.2999 12.8478C45.9843 13.1871 45.6584 13.4238 45.266 13.6682C45.1881 13.6682 45.1102 13.6682 45.0299 13.6682C45.1722 13.0742 45.5398 12.8009 45.9891 12.4315C46.2687 12.1827 46.4369 11.9891 46.4696 11.6059C46.4669 11.5102 46.4641 11.4146 46.4613 11.316C46.4581 11.1712 46.4581 11.1712 46.4549 11.0234C46.4521 10.9499 46.4494 10.8765 46.4466 10.8008Z" fill="#0F160F"/>
<path d="M13.0372 13.7876C13.0761 13.7876 13.1151 13.7876 13.1552 13.7876C13.1654 13.9107 13.1756 14.0337 13.1861 14.1605C13.2744 15.1049 13.4117 16.0057 13.6791 16.9164C13.7033 16.9993 13.7275 17.0821 13.7525 17.1675C13.87 17.5492 14.0046 17.8953 14.185 18.2517C14.2347 18.3556 14.2845 18.4596 14.3358 18.5667C14.2968 18.6455 14.2579 18.7244 14.2177 18.8056C13.8181 18.1602 13.5463 17.4823 13.2733 16.7745C13.2334 16.6769 13.1935 16.5792 13.1525 16.4786C12.8296 15.5823 12.9354 14.7186 13.0372 13.7876Z" fill="#182618"/>
<path d="M36.2939 1.83984C36.4155 2.23043 36.4076 2.54003 36.3602 2.94501C36.3482 3.05158 36.3362 3.15816 36.3238 3.26797C36.309 3.38902 36.309 3.38902 36.2939 3.51252C36.3717 3.51252 36.4496 3.51252 36.5298 3.51252C36.5441 3.42905 36.5584 3.34557 36.5731 3.25957C36.6028 3.09647 36.6028 3.09647 36.633 2.93007C36.6522 2.82195 36.6713 2.71384 36.6911 2.60244C36.7657 2.31775 36.7657 2.31775 37.0016 2.0788C37.0016 2.67021 37.0016 3.26162 37.0016 3.87095C36.7681 3.87095 36.5345 3.87095 36.2939 3.87095C36.0579 3.632 36.0579 3.632 36.0266 3.39865C36.0304 2.83179 36.0781 2.37264 36.2939 1.83984Z" fill="#012301"/>
<path d="M4.41913 7.33594C4.45809 7.33594 4.49705 7.33594 4.53718 7.33594C4.62323 8.13706 4.36063 8.69025 3.94691 9.36705C3.59002 9.80048 3.29876 10.034 2.76636 10.2034C2.84914 10.127 2.93193 10.0506 3.01722 9.9719C3.76443 9.2071 4.17451 8.37616 4.41913 7.33594Z" fill="#002200"/>
<path d="M33.578 15.938C33.6558 16.0168 33.7337 16.0957 33.8139 16.1769C33.6864 17.1456 33.3036 18.0565 32.8702 18.9249C32.7923 18.9643 32.7145 19.0038 32.6343 19.0444C32.6805 18.9089 32.7267 18.7733 32.7744 18.6337C33.0683 17.7434 33.3195 16.8393 33.578 15.938Z" fill="#172517"/>
<path d="M42.433 7.93311C42.6294 8.23135 42.7466 8.47163 42.8757 8.79931C43.1838 9.51633 43.6617 10.0179 44.2038 10.5616C43.5416 10.3318 43.0943 10.0241 42.7576 9.3967C42.5332 8.9095 42.4707 8.4669 42.433 7.93311Z" fill="#001A00"/>
<path d="M40.072 2.91504C40.15 2.95447 40.2279 2.99389 40.3082 3.03452C40.3237 3.11907 40.3392 3.20362 40.3552 3.29074C40.4747 3.86504 40.8014 4.33768 41.0875 4.84301C41.142 4.9559 41.1965 5.06879 41.2526 5.1851C41.2136 5.26396 41.1747 5.34281 41.1345 5.42406C40.9568 5.15067 40.7798 4.87683 40.6033 4.60265C40.5526 4.52488 40.5019 4.4471 40.4497 4.36697C40.072 3.77845 40.072 3.77845 40.072 3.51242C39.9941 3.51242 39.9162 3.51242 39.8359 3.51242C39.9392 3.04945 39.9392 3.04945 40.072 2.91504Z" fill="#002000"/>
<path d="M6.54363 2.55664C6.77218 2.65372 6.77218 2.65372 7.01547 2.79559C7.0544 2.91388 7.09332 3.03216 7.13343 3.15403C7.06774 3.21317 7.00205 3.27231 6.93437 3.33324C6.5843 3.71657 6.33368 4.13986 6.07179 4.58775C5.95383 4.22932 5.95383 4.22932 6.10128 3.91943C6.2389 3.68794 6.37652 3.45645 6.51414 3.22497C6.70648 2.91274 6.70648 2.91274 6.54363 2.55664Z" fill="#012401"/>
<path d="M0.759154 8.41113C0.798081 8.41113 0.837008 8.41113 0.877115 8.41113C0.890541 9.21951 0.862985 9.99879 0.759154 10.8007C0.720227 10.7218 0.681301 10.643 0.641194 10.5617C0.56334 10.5223 0.485486 10.4829 0.405273 10.4422C0.522054 9.77198 0.638835 9.10171 0.759154 8.41113Z" fill="#1B241B"/>
<path d="M46.0923 9.12793C46.3506 9.5204 46.3699 9.70512 46.402 10.1659C46.4108 10.2846 46.4196 10.4034 46.4287 10.5257C46.4374 10.6618 46.4374 10.6618 46.4462 10.8006C46.3294 10.8598 46.3294 10.8598 46.2103 10.9201C46.1676 10.6664 46.126 10.4124 46.0849 10.1584C46.0617 10.017 46.0384 9.87565 46.0144 9.72998C45.9744 9.36688 45.9744 9.36688 46.0923 9.12793Z" fill="#1F261F"/>
<path d="M12.683 13.5486C12.7219 13.6274 12.7608 13.7063 12.8009 13.7875C12.8788 13.7875 12.9567 13.7875 13.0369 13.7875C13.0369 14.1818 13.0369 14.5761 13.0369 14.9823C12.9201 15.0415 12.9201 15.0415 12.8009 15.1018C12.762 14.5892 12.7231 14.0767 12.683 13.5486Z" fill="#001B00"/>
<path d="M5.83504 0.64502C5.91289 0.684447 5.99075 0.723874 6.07096 0.764497C5.89579 0.882779 5.89579 0.882779 5.71708 1.00345C5.75601 0.885169 5.79493 0.766886 5.83504 0.64502ZM5.59912 1.00345C5.63805 1.12173 5.67697 1.24002 5.71708 1.36188C5.59958 1.57983 5.59958 1.57983 5.42955 1.80245C5.37375 1.87684 5.31794 1.95123 5.26044 2.02787C5.2165 2.08409 5.17255 2.1403 5.12728 2.19822C5.04942 2.15879 4.97157 2.11937 4.89136 2.07874C5.12492 1.7239 5.35848 1.36905 5.59912 1.00345Z" fill="#191F19"/>
<path d="M13.9813 19.2837C14.5963 19.573 15.1423 19.9609 15.4496 20.583C15.4715 20.6668 15.4935 20.7506 15.516 20.8369C14.9399 20.3659 14.4467 19.8668 13.9813 19.2837Z" fill="#19251A"/>
<path d="M37.5926 3.75165C37.5536 3.86993 37.5146 3.98821 37.4745 4.11008C37.0834 4.19222 37.0834 4.19222 36.6481 4.22956C36.4194 4.05781 36.4194 4.05781 36.2939 3.87113C36.7336 3.78834 37.1452 3.73833 37.5926 3.75165Z" fill="#41B841"/>
<path d="M32.6345 19.6421C32.7124 19.6815 32.7904 19.7209 32.8706 19.7616C32.4421 20.1953 32.0136 20.629 31.572 21.0758C31.5331 20.997 31.4941 20.9181 31.454 20.8369C31.8475 20.4386 32.241 20.0403 32.6345 19.6421Z" fill="#182418"/>
<path d="M45.6204 7.93311C45.6982 7.93311 45.7761 7.93311 45.8563 7.93311C46.0919 8.42542 46.1132 8.82344 46.0922 9.36683C45.8066 9.07754 45.794 8.91268 45.7236 8.51556C45.7038 8.40682 45.684 8.29809 45.6637 8.18606C45.6494 8.10259 45.6351 8.01911 45.6204 7.93311Z" fill="#141A14"/>
<path d="M13.037 13.7876C13.076 13.7876 13.1149 13.7876 13.155 13.7876C13.1939 14.4184 13.2328 15.0493 13.2729 15.6992C13.1562 15.6598 13.0394 15.6204 12.9191 15.5798C12.958 14.9883 12.9969 14.3969 13.037 13.7876Z" fill="#2C2E2C"/>
<path d="M10.6762 3.5125C10.5507 3.69172 10.5507 3.69172 10.322 3.87093C9.88668 3.89333 9.88668 3.89333 9.49562 3.87093C9.45666 3.79208 9.4177 3.71322 9.37756 3.63198C9.81843 3.527 10.2238 3.50185 10.6762 3.5125Z" fill="#22A822"/>
<path d="M6.89836 3.15405C6.97621 3.19348 7.05406 3.23291 7.13428 3.27353C7.01749 3.58895 6.90071 3.90437 6.78039 4.22935C6.66361 4.18992 6.54683 4.15049 6.42651 4.10987C6.55916 3.75479 6.68873 3.47253 6.89836 3.15405Z" fill="#0EAB0E"/>
<path d="M11.266 1.95947C11.3828 1.9989 11.4996 2.03833 11.6199 2.07895C11.642 2.42245 11.642 2.42245 11.6199 2.79581C11.4447 2.91409 11.4447 2.91409 11.266 3.03477C11.266 2.67992 11.266 2.32507 11.266 1.95947Z" fill="#1E211E"/>
<path d="M36.1761 11.3979C36.3028 11.4349 36.4294 11.4719 36.5598 11.51C36.8643 11.5973 37.1672 11.6817 37.4748 11.7564C37.4358 11.8747 37.3968 11.9929 37.3567 12.1148C36.9671 11.9177 36.5775 11.7205 36.1761 11.5174C36.1761 11.478 36.1761 11.4386 36.1761 11.3979Z" fill="#002900"/>
<path d="M44.9119 6.73853C45.4469 7.0095 45.5153 7.15393 45.7376 7.69434C45.7376 7.7732 45.7376 7.85205 45.7376 7.9333C45.6597 7.9333 45.5819 7.9333 45.5017 7.9333C45.307 7.53902 45.1124 7.14475 44.9119 6.73853Z" fill="#070D07"/>
<path d="M2.88407 4.82666C2.97992 5.02828 2.97992 5.02828 3.00203 5.30457C2.7145 5.63313 2.7145 5.63313 2.41223 5.90195C2.41223 5.34269 2.52977 5.23037 2.88407 4.82666Z" fill="#142214"/>
<path d="M43.6134 4.82666C43.9083 5.10295 43.9083 5.10295 44.2032 5.42405C44.2032 5.54233 44.2032 5.66061 44.2032 5.78248C43.9083 5.50619 43.9083 5.50619 43.6134 5.18509C43.6134 5.06681 43.6134 4.94853 43.6134 4.82666Z" fill="#0C140C"/>
<path d="M32.6336 19.4031C32.6336 19.7615 32.6336 19.7615 32.3387 20.0826C32.2414 20.1738 32.144 20.265 32.0438 20.3589C31.9659 20.3195 31.8881 20.28 31.8079 20.2394C32.0831 19.9606 32.3583 19.6819 32.6336 19.4031Z" fill="#139F12"/>
</svg>
