<svg width="71" height="32" viewBox="0 0 71 32" fill="none" xmlns="http://www.w3.org/2000/svg">
<path d="M42.293 24.4813H38.8667V11.8081H42.293V17.9064L48.7038 11.8081H52.8089L46.2573 18.0096L52.8538 24.4813H48.4796L42.293 18.1914V24.4813Z" fill="#00A86B"/>
<path d="M57.3003 24.4813H53.874V11.8081H62.2829C62.7056 11.8081 63.1411 11.8278 63.5894 11.8622C64.0313 11.8966 64.5308 11.9703 65.088 12.0636C65.6388 12.1619 66.1575 12.3978 66.6378 12.7713C67.1246 13.1398 67.4704 13.5673 67.701 14.0489C67.8995 14.5649 67.9956 15.0956 67.9956 15.6361C67.9956 16.2307 67.8803 16.7762 67.6561 17.2577C67.3936 17.7491 67.0349 18.157 66.5674 18.4813C66.0999 18.8056 65.4851 19.0366 64.7294 19.1791L68.7449 24.4862H64.9087L61.3094 19.5329H57.2939V24.4813H57.3003ZM61.4888 14.0833H57.2939V17.2872H61.4888C62.11 17.2872 62.6223 17.2627 63.0386 17.1988C63.4485 17.1398 63.8199 16.9875 64.1402 16.7418C64.4091 16.4961 64.5436 16.1373 64.5436 15.6656C64.5436 14.9826 64.2746 14.5501 63.7367 14.3634C63.2051 14.1767 62.4622 14.0833 61.4888 14.0833Z" fill="#00A86B"/>
<path d="M31.2443 7.54887C31.1995 7.49481 31.1546 7.43585 31.097 7.36214L30.7768 7.02798C30.7127 6.97393 30.6551 6.91496 30.5911 6.86582C30.3157 6.64469 30.0083 6.45796 29.6688 6.31545C29.3166 6.17295 28.9259 6.06484 28.5353 6.02061C28.2087 5.97639 27.8564 5.96656 27.5106 5.98622C27.2416 5.97147 26.9598 5.97639 26.6972 5.99113C26.0696 6.04518 25.4612 6.18278 24.7823 6.40882C23.5911 6.83142 22.5985 7.38179 21.7915 7.87319C21.4585 8.07958 21.1319 8.2958 20.7988 8.52184C19.6012 9.32774 18.3908 10.2761 16.9947 11.4948C16.5336 11.8978 16.066 12.3253 15.5729 12.7823C15.3424 12.9936 15.1118 13.2147 14.8748 13.4457C14.1896 14.1091 13.5107 14.7823 12.8639 15.4555C12.3643 15.9764 11.8648 16.5071 11.3781 17.0427C10.6096 17.8879 9.84104 18.743 9.11735 19.6078L8.22715 20.6643L7.7148 21.3032L7.36256 21.7356C7.08717 22.0796 6.13293 23.2737 5.47969 24.1779L5.31958 24.3941H6.03046H9.96272H10.68V21.3032V20.34C11.3973 19.6324 12.1338 18.915 12.8895 18.1926L15.2463 21.3032L17.539 24.3253L17.5903 24.399H18.3012H24.0907H24.808L22.4768 21.3081L19.2682 17.0476L17.1804 14.2712C17.744 13.7749 18.3332 13.2786 18.9416 12.7872C19.0377 12.7086 19.1337 12.63 19.2298 12.5513C19.9919 11.9322 20.754 11.3425 21.4969 10.8069C22.3615 10.1828 23.1428 9.66681 23.8921 9.22946C24.3468 8.95919 24.7759 8.73314 25.1858 8.53658C25.6213 8.32528 26.0376 8.15329 26.4282 8.02553C26.8317 7.89285 27.1904 7.81423 27.4978 7.77491C27.6323 7.79457 27.7539 7.82897 27.8628 7.87319C27.9909 7.92725 28.1126 8.00096 28.2535 8.11398L28.4712 8.34002C28.4904 8.35968 28.5161 8.39408 28.5289 8.41865C28.5609 8.45796 28.5801 8.49236 28.6057 8.53658C28.721 8.74297 28.7914 8.97393 28.8043 9.22946C28.8363 9.78474 28.6506 10.4678 28.2343 11.3081C28.0421 11.6815 27.8372 12.0403 27.6131 12.3843C27.5234 12.512 27.4401 12.6545 27.3377 12.7921C27.2032 12.9936 27.0495 13.2049 26.8701 13.4408C26.6076 13.7946 26.3258 14.1435 26.0504 14.4825C25.7622 14.8314 25.474 15.1705 25.1666 15.5096C24.7247 16.0108 24.27 16.512 23.764 17.0476C23.0532 17.7995 22.2654 18.6103 21.3304 19.539L21.2279 19.6373L21.5738 19.9076H22.2846L22.4127 19.829C23.1941 19.3523 24.0138 18.8019 24.904 18.1385C25.4036 17.7602 25.8583 17.4014 26.2938 17.0427C26.6012 16.7872 26.9022 16.5317 27.184 16.2761C27.5554 15.9518 27.9141 15.6177 28.2471 15.2835C28.5865 14.9494 28.9195 14.6005 29.2462 14.2417C29.5792 13.8732 29.8866 13.4997 30.1556 13.1312C30.2452 13.0132 30.3285 12.9002 30.4117 12.7872C30.6167 12.4924 30.8024 12.2123 30.9561 11.942C31.2315 11.4604 31.4172 11.0427 31.5517 10.6398C31.731 10.0943 31.8079 9.62258 31.7951 9.16066C31.7823 8.94445 31.7502 8.73314 31.699 8.52676C31.6094 8.17295 31.4492 7.84862 31.2443 7.54887ZM30.4758 10.5562C30.3477 10.9543 30.1556 11.3671 29.893 11.8142C29.6752 12.1975 29.4255 12.5759 29.1181 12.9788C28.8363 13.3523 28.5417 13.7209 28.2279 14.0648C27.8948 14.4383 27.5746 14.7725 27.2416 15.0968C26.915 15.4162 26.5755 15.7405 26.1977 16.0796C25.5124 16.6889 24.7759 17.2933 23.937 17.9223C23.3286 18.3744 22.7522 18.7774 22.195 19.1361C23.5143 17.8142 24.5454 16.7184 25.4804 15.6619C25.7814 15.313 26.076 14.969 26.3642 14.6201C26.646 14.2761 26.9278 13.9223 27.1904 13.5685C27.5042 13.1508 27.7411 12.8069 27.9461 12.4924C28.1702 12.1435 28.388 11.7749 28.5801 11.3965C29.0156 10.512 29.2141 9.79457 29.1757 9.19506C29.1565 8.84125 29.0476 8.52184 28.8555 8.25157C28.8363 8.21717 28.7978 8.17786 28.7786 8.15821L28.4904 7.87319C28.3496 7.76017 28.1958 7.67172 28.0421 7.59801C27.7283 7.46533 27.3505 7.41128 26.9086 7.44567C26.5179 7.47516 26.0824 7.56853 25.5701 7.74052C24.7823 8.00096 23.9242 8.40882 22.9443 8.98376C22.1758 9.43585 21.3816 9.95673 20.5235 10.5808C19.7806 11.1214 19.012 11.7159 18.2435 12.3351C17.4942 12.9395 16.7769 13.5489 16.0917 14.1435L16.0084 14.2221L23.4374 24.0943H17.8016L12.6397 17.2835L12.4668 17.4408C11.4485 18.4088 10.5135 19.3081 9.62329 20.1828L9.57846 20.2221V24.0894H5.95361C6.59404 23.2295 7.4202 22.1926 7.67637 21.8732L8.53455 20.8069L9.42476 19.7503C10.616 18.3449 11.8648 16.9543 13.1649 15.6177C13.8117 14.9494 14.4842 14.2712 15.1694 13.6128C15.9187 12.9002 16.6104 12.2614 17.2829 11.6717C19.0505 10.1336 20.5171 9.02798 22.0285 8.08941C22.8162 7.60784 23.7833 7.0673 24.9424 6.65943C25.5829 6.44322 26.1529 6.31054 26.7421 6.27123C27.0815 6.24174 27.4465 6.24666 27.7668 6.29088C28.1254 6.33511 28.4776 6.42848 28.785 6.56115C29.086 6.684 29.3678 6.85108 29.6112 7.05255C29.6752 7.10169 29.7329 7.15083 29.7777 7.19997L30.0787 7.51447C30.13 7.57344 30.1684 7.63241 30.2132 7.68646C30.5911 8.21717 30.6871 8.77737 30.6999 9.15084C30.7127 9.60292 30.6423 10.0599 30.4758 10.5562Z" fill="#00A86B"/>
<path d="M8.31282 17.0369L8.35765 16.9828C9.33111 15.8428 10.3814 14.7322 11.4894 13.656C11.7968 13.3612 12.1106 13.0663 12.4244 12.7764C14.0319 11.2875 15.7675 9.87224 17.5991 8.51597C18.6622 7.72973 19.7509 6.96806 20.8717 6.22604C21.7299 5.65602 22.6137 5.10565 23.5039 4.57002C23.6832 4.46192 23.8561 4.35872 24.0354 4.25553C24.7527 3.82801 25.4956 3.40541 26.2385 2.99263C27.1608 2.48157 28.1086 1.98526 29.0692 1.49877C29.5496 1.25799 30.0363 1.02211 30.523 0.791155C31.0162 0.560197 31.5093 0.334152 32.0152 0.117936L31.9448 0C30.8496 0.324324 29.7993 0.707617 28.749 1.11057C27.7115 1.52334 26.6932 1.96069 25.6942 2.41769C24.7015 2.87961 23.7216 3.36118 22.7546 3.85749C22.5048 3.98526 22.2678 4.12285 22.0245 4.25553C21.3264 4.63882 20.6283 5.03686 19.9431 5.43489C18.3164 6.39803 16.7665 7.42998 15.2935 8.51597C13.5131 9.82801 11.848 11.2088 10.3174 12.683V8.51597V6.81572L9.60009 6.21622H4.02192V8.51106V12.7764V17.0369V20.4275C3.849 20.7125 3.68249 21.0025 3.51598 21.2973C3.39429 21.5086 3.27902 21.7248 3.16374 21.9361C2.52331 23.1253 1.97894 24.3292 1.51783 25.5577C0.992671 26.9582 0.589198 28.3833 0.320216 29.8133C0.179321 30.5405 0.0640433 31.258 0 31.9803L0.179321 32C0.390664 31.2678 0.627624 30.5405 0.877393 29.8182C1.38333 28.3784 1.97253 26.9533 2.65139 25.5627C3.18295 24.4668 3.77855 23.3907 4.43179 22.3342C4.64314 21.9902 4.86729 21.6413 5.09144 21.3022C5.4693 20.7371 5.86636 20.172 6.26984 19.6167L8.31282 17.0369ZM4.04754 22.1867C2.99723 23.8821 2.075 25.6806 1.29367 27.5577C1.83164 25.7101 2.58735 23.8771 3.5544 22.0688C3.87462 21.4693 4.22045 20.8698 4.5919 20.2752L4.39337 20.5307V6.51597H9.22864V14.3243C9.6193 13.9165 10.0164 13.5086 10.4327 13.1057C13.2377 10.3735 16.5296 7.88698 20.2057 5.71007C21.2047 5.12039 22.1141 4.60934 23.0043 4.13759C23.9522 3.64619 24.9385 3.16462 25.9247 2.7027C26.1553 2.59951 26.373 2.50123 26.5908 2.40295C26.3858 2.51106 26.1937 2.61916 26.0016 2.72727C25.0793 3.2285 24.1507 3.75921 23.2541 4.3145C22.2614 4.90418 21.3969 5.44963 20.6027 5.97543C17.0355 8.32924 13.8526 10.8501 11.1691 13.4545C8.35124 16.1671 5.95603 19.1057 4.04754 22.1867Z" fill="#00A86B"/>
</svg>
