<svg width="90" height="24" viewBox="0 0 90 24" fill="none" xmlns="http://www.w3.org/2000/svg">
<path d="M15.8585 2.44043H4.99251C3.76992 2.44043 2.77881 3.41576 2.77881 4.61889V19.3819C2.77881 20.5851 3.76992 21.5604 4.99251 21.5604H15.8585C17.0811 21.5604 18.0722 20.5851 18.0722 19.3819V4.61889C18.0722 3.41576 17.0811 2.44043 15.8585 2.44043Z" fill="white"/>
<path d="M11.9943 0H8.8636C4.11201 0 0.114933 3.68112 0.00224726 8.35544C-0.113705 13.1704 3.83275 17.1231 8.70028 17.1231H11.3966C12.3422 17.1231 13.1089 16.3686 13.1089 15.438C13.1089 14.5075 12.3422 13.753 11.3966 13.753H8.83012C5.97296 13.753 3.53715 11.5713 3.42855 8.76205C3.31505 5.80815 5.72391 3.37014 8.70028 3.37014H12.1511C15.0597 3.37014 17.4269 5.69887 17.4269 8.56196C17.4269 8.58687 17.4253 8.61178 17.4253 8.63749C18.5872 9.51177 19.5206 10.6665 20.1175 11.9988C20.627 10.8593 20.8932 9.59213 20.8467 8.25902C20.6809 3.62487 16.7059 0 11.9943 0Z" fill="#39ACA6"/>
<path d="M8.85649 24.0001H11.9872C16.738 24.0001 20.7359 20.3189 20.8485 15.6446C20.9645 10.8297 17.018 6.87695 12.1505 6.87695H9.45422C8.50864 6.87695 7.74189 7.6315 7.74189 8.56202C7.74189 9.49255 8.50864 10.2471 9.45422 10.2471H12.0207C14.8778 10.2471 17.3136 12.4288 17.4222 15.238C17.5357 18.1919 15.1269 20.6299 12.1505 20.6299H8.69971C5.79112 20.6299 3.4239 18.3012 3.4239 15.4381C3.4239 15.4132 3.42553 15.3883 3.42553 15.3626C2.26356 14.4883 1.33023 13.3336 0.73332 12.0013C0.224601 13.1407 -0.0415984 14.4079 0.00576229 15.7411C0.169892 20.3752 4.14492 24.0001 8.85731 24.0001H8.85649Z" fill="#39ACA6"/>
<path d="M31.6542 18.7558C30.7388 18.2334 30.0489 17.4958 29.5842 16.5428L31.0565 15.3479C31.8526 16.8883 33.0269 17.6589 34.5791 17.6589C35.4014 17.6589 36.0645 17.45 36.5691 17.0321C37.0468 16.6143 37.2852 16.092 37.2852 15.4652C37.2852 14.6954 36.7741 14.0228 35.7526 13.4482C35.5664 13.3574 35.0626 13.122 34.2403 12.7435C33.5633 12.443 33.013 12.169 32.5884 11.9207C31.1161 10.9942 30.3796 9.84506 30.3796 8.47418C30.3796 7.36446 30.7838 6.43795 31.5938 5.69305C32.403 4.93609 33.4776 4.55762 34.8176 4.55762C36.6483 4.55762 38.0879 5.26957 39.1356 6.69188L37.8021 7.94544C37.006 6.91447 36.0179 6.39858 34.8372 6.39858C34.1603 6.39858 33.6034 6.57456 33.1657 6.92732C32.728 7.29294 32.5092 7.76946 32.5092 8.35686C32.5092 9.10096 32.9272 9.72131 33.7626 10.2171C34.1072 10.426 34.678 10.7137 35.4741 11.0785C36.3103 11.4699 36.9268 11.7768 37.3244 11.9986C38.7436 12.8472 39.454 13.9697 39.454 15.3671C39.454 16.6078 38.9894 17.6067 38.061 18.3636C37.1325 19.1342 35.9779 19.5191 34.5987 19.5191C33.5111 19.5191 32.5288 19.2644 31.6534 18.7558H31.6542Z" fill="black"/>
<path d="M50.1804 8.78828H52.0111V19.2852H50.1804V17.797C49.225 18.959 47.9716 19.5399 46.4193 19.5399C44.867 19.5399 43.6062 19.0048 42.5986 17.9344C41.5901 16.8641 41.0863 15.539 41.0863 13.9592C41.0863 12.3794 41.5901 11.0873 42.5986 10.082C43.607 9.05104 44.8801 8.53516 46.4193 8.53516C47.9585 8.53516 49.1858 9.12899 50.1804 10.3175V8.78989V8.78828ZM49.2846 11.3541C48.6077 10.6228 47.7258 10.2572 46.6381 10.2572C45.5505 10.2572 44.6743 10.6228 44.0112 11.3541C43.3474 12.0853 43.0158 12.9797 43.0158 14.0371C43.0158 15.0946 43.3474 15.989 44.0112 16.7202C44.6743 17.4515 45.5505 17.8171 46.6381 17.8171C47.7258 17.8171 48.6085 17.4515 49.2846 16.7202C49.9615 15.989 50.2996 15.0882 50.2996 14.0179C50.2996 12.9475 49.9615 12.0724 49.2846 11.3549V11.3541Z" fill="black"/>
<path d="M62.3594 8.78833H64.4686L59.7725 19.2652H58.4391L53.743 8.78833H55.8726L59.1364 16.6415L62.3602 8.78833H62.3594Z" fill="black"/>
<path d="M74.5973 4.46045H76.5081V19.2846H74.5973V17.8157C73.6689 18.9648 72.435 19.5393 70.8958 19.5393C69.3566 19.5393 68.0566 19.0106 67.0351 17.9531C66.0266 16.8827 65.5228 15.5705 65.5228 14.0172C65.5228 12.4639 66.0266 11.1847 67.0351 10.14C68.0436 9.06968 69.3166 8.53451 70.8558 8.53451C72.395 8.53451 73.628 9.12834 74.5973 10.3168V4.46045ZM73.7219 11.3534C73.0581 10.6222 72.1827 10.2565 71.0951 10.2565C70.0074 10.2565 69.1247 10.6222 68.4486 11.3534C67.7847 12.0846 67.4532 12.9726 67.4532 14.0164C67.4532 15.0602 67.7847 15.9876 68.4486 16.7188C69.1255 17.45 70.0074 17.8157 71.0951 17.8157C72.1827 17.8157 73.0581 17.45 73.7219 16.7188C74.3989 15.9876 74.7369 15.0868 74.7369 14.0164C74.7369 12.9461 74.3989 12.071 73.7219 11.3534Z" fill="black"/>
<path d="M80.3686 17.9528C79.3202 16.8825 78.7968 15.5702 78.7968 14.017C78.7968 12.4637 79.321 11.1643 80.3686 10.1197C81.4163 9.04933 82.7628 8.51416 84.4082 8.51416C86.0535 8.51416 87.3601 9.04933 88.4077 10.1197C89.4692 11.2037 90 12.5022 90 14.017C90 15.5317 89.4692 16.8696 88.4077 17.9528C87.3592 19.0103 86.0258 19.539 84.4082 19.539C82.7906 19.539 81.4294 19.0103 80.3686 17.9528ZM87.0155 11.3732C86.2993 10.6291 85.4297 10.2571 84.409 10.2571C83.3883 10.2571 82.5187 10.6291 81.8017 11.3732C81.0856 12.0916 80.7271 12.9723 80.7271 14.017C80.7271 15.0616 81.0856 15.956 81.8017 16.7001C82.5178 17.4441 83.3867 17.8162 84.409 17.8162C85.4313 17.8162 86.2993 17.4441 87.0155 16.7001C87.7316 15.956 88.0901 15.0616 88.0901 14.017C88.0901 12.9723 87.7316 12.0916 87.0155 11.3732Z" fill="black"/>
</svg>
