<svg width="128" height="28" viewBox="0 0 128 28" fill="none" xmlns="http://www.w3.org/2000/svg">
<path fill-rule="evenodd" clip-rule="evenodd" d="M3.25855 9.30603C2.75657 10.5027 2.50415 11.8279 2.50415 13.2788C2.50415 14.7296 2.75657 16.0662 3.25855 17.2858C3.78323 18.4824 4.5036 19.542 5.41966 20.4645C6.33572 21.3613 7.40777 22.0639 8.6443 22.5694C9.87801 23.0549 11.2166 23.2948 12.6574 23.2948C14.0301 23.2948 15.3091 23.0664 16.5003 22.6065C17.6886 22.1439 18.7748 21.407 19.759 20.3931L21.3699 22.0182C20.3177 23.192 19.0273 24.0802 17.4929 24.6772C15.9614 25.2769 14.3165 25.5768 12.5553 25.5768C10.7487 25.5768 9.07823 25.2769 7.54673 24.6772C6.01524 24.0574 4.68795 23.192 3.56769 22.0867C2.44743 20.9815 1.5654 19.682 0.927282 18.1826C0.309013 16.686 -0.00012207 15.0524 -0.00012207 13.2788C-0.00012207 11.5052 0.309013 9.87152 0.927282 8.37211C1.5654 6.87555 2.44743 5.57606 3.56769 4.47078C4.71064 3.36549 6.04927 2.51154 7.58077 1.91463C9.11226 1.29202 10.7827 0.980713 12.5893 0.980713C14.3278 0.980713 15.9614 1.2806 17.4929 1.88036C19.0273 2.45442 20.3177 3.33122 21.3699 4.50505L19.759 6.12727C18.7748 5.11338 17.6886 4.38795 16.5003 3.95098C15.3091 3.49116 14.0301 3.25982 12.6574 3.25982C11.2166 3.25982 9.87801 3.51401 8.6443 4.01952C7.40777 4.50505 6.33572 5.20763 5.41966 6.12727C4.5036 7.02692 3.78323 8.0865 3.25855 9.30603Z" fill="#F8F8FB"/>
<path fill-rule="evenodd" clip-rule="evenodd" d="M67.3374 1.18921L78.3131 25.3683H75.6386L66.0668 3.83103L56.4978 25.3683H53.8574L64.8331 1.18921H67.3374Z" fill="#F8F8FB"/>
<path d="M29.3194 1.18921H26.7812V25.3683H29.3194V1.18921Z" fill="#F8F8FB"/>
<path fill-rule="evenodd" clip-rule="evenodd" d="M52.0856 12.8989V15.1095H39.6692V25.3683H37.1309V12.8989H52.0856Z" fill="#F8F8FB"/>
<path d="M53.5972 1.18921H37.1309V3.39977H53.5972V1.18921Z" fill="#F8F8FB"/>
<path fill-rule="evenodd" clip-rule="evenodd" d="M95.1266 17.0781L100.989 25.3692H98.1754L92.5741 17.5408C92.5202 17.5437 92.4663 17.5437 92.4124 17.5437H84.2388V25.3692H81.8281V15.653H92.1459C95.4754 15.653 98.1754 12.9369 98.1754 9.58107C98.1754 6.2281 95.4754 3.50916 92.1459 3.50916H81.8281V1.08154H92.4124C96.9275 1.08154 100.586 4.76582 100.586 9.31261C100.586 12.8998 98.3059 15.9529 95.1266 17.0781Z" fill="#F8F8FB"/>
<path d="M124.637 1.88782L128 2.11987L119.995 12.2423L116.353 12.2423L124.637 1.88782Z" fill="#665FF5"/>
<path d="M113.346 15.5785L116.709 15.8105L108.704 25.933L105.063 25.933L113.346 15.5785Z" fill="#665FF5"/>
<path d="M106.102 1.55069L109.549 1.82254L126.699 26.3066L123.335 26.0412L106.102 1.55069Z" fill="#665FF5"/>
</svg>
