<svg width="54" height="32" viewBox="0 0 54 32" fill="none" xmlns="http://www.w3.org/2000/svg">
<g clip-path="url(#clip0_5170_3712)">
<path fill-rule="evenodd" clip-rule="evenodd" d="M25.9706 12.3203C24.5437 3.99178 23.3223 0.0957466 12.7471 0C12.8304 0.499441 12.918 1.06139 13.0082 1.63841C13.8747 7.19171 14.9763 14.2452 21.2349 15.5728C23.6735 15.0936 25.0347 13.8774 25.9706 12.3203Z" fill="#FFB800"/>
<path fill-rule="evenodd" clip-rule="evenodd" d="M41.1763 0.000488281C31.3359 0.122803 29.6767 4.73367 28.1479 8.9847C27.1156 11.8554 26.1383 14.5705 22.9888 15.7942H30.4643C38.7062 15.7942 39.9547 7.79437 40.9152 1.63867C41.0054 1.06164 41.0931 0.499582 41.1763 0.000488281Z" fill="#FFB800"/>
<path d="M45.3418 31.7347V20.2529H48.0301V26.1415L50.5466 23.3693H53.6612L50.735 26.7484L53.9235 31.7347H50.7432L48.7843 28.5033L48.0301 29.3072V31.7347H45.3418ZM39.1193 23.1234C40.3331 23.1234 41.5138 23.578 42.1315 24.6758L42.4125 23.3695L44.2172 23.3693L43.9362 27.5521L44.2172 31.7347H42.4125L42.1301 30.4227C41.5122 31.5176 40.3327 31.9808 39.1193 31.9808C36.5716 31.9808 34.9881 30.0106 34.9881 27.5521C34.9881 25.0862 36.5658 23.1234 39.1193 23.1234ZM39.5783 25.4362C38.3403 25.4362 37.611 26.3814 37.611 27.5521C37.611 28.7276 38.3585 29.668 39.5783 29.668C40.8017 29.668 41.5536 28.7338 41.5536 27.5521C41.5536 26.3759 40.82 25.4362 39.5783 25.4362ZM11.7536 23.1234C12.9674 23.1234 14.1481 23.578 14.7658 24.6758L15.047 23.3695L16.8517 23.3693L16.5707 27.5521L16.8517 31.7347H15.047L14.7645 30.4227C14.1467 31.5176 12.967 31.9808 11.7536 31.9808C9.20617 31.9808 7.6226 30.0106 7.6226 27.5521C7.6226 25.0862 9.20015 23.1234 11.7536 23.1234ZM12.2126 25.4362C10.9747 25.4362 10.2454 26.3814 10.2454 27.5521C10.2454 28.7276 10.9929 29.668 12.2126 29.668C13.4361 29.668 14.1879 28.7338 14.1879 27.5521C14.1879 26.3759 13.4543 25.4362 12.2126 25.4362ZM27.3649 31.7347V20.8155L30.0862 20.2529V29.2497H34.4114L34.6926 31.7347H27.3649ZM17.9763 31.7347V20.2529H20.6646V26.1415L23.1809 23.3693H26.2956L23.3695 26.7484L26.5579 31.7347H23.3777L21.4186 28.5033L20.6646 29.3072V31.7347H17.9763ZM0 31.7347V20.8155L2.72126 20.2529V29.2497H7.04645L7.32751 31.7347H0Z" fill="black"/>
</g>
<defs>
<clipPath id="clip0_5170_3712">
<rect width="54" height="32" fill="white"/>
</clipPath>
</defs>
</svg>
