<svg width="116" height="24" viewBox="0 0 116 24" fill="none" xmlns="http://www.w3.org/2000/svg">
<path d="M11.7054 22.7926C10.021 22.7926 8.46457 22.5151 7.03604 21.9603C5.60751 21.3841 4.37088 20.5837 3.32613 19.5594C2.28138 18.535 1.46051 17.3292 0.863514 15.942C0.287838 14.5548 0 13.0396 0 11.3963C0 9.75301 0.287838 8.23777 0.863514 6.85058C1.46051 5.46339 2.28138 4.2576 3.32613 3.23322C4.3922 2.20883 5.63949 1.4192 7.06802 0.864326C8.49655 0.288109 10.053 0 11.7374 0C13.3578 0 14.8823 0.277438 16.3108 0.832314C17.7394 1.36585 18.944 2.17682 19.9248 3.26523L18.4216 4.7698C17.5048 3.83078 16.4921 3.15852 15.3833 2.75304C14.2746 2.32621 13.0806 2.11279 11.8014 2.11279C10.4581 2.11279 9.21082 2.34755 8.05947 2.81706C6.90812 3.26523 5.90601 3.91614 5.05316 4.7698C4.2003 5.60211 3.52868 6.58381 3.03829 7.7149C2.56922 8.82466 2.33469 10.0518 2.33469 11.3963C2.33469 12.7408 2.56922 13.9786 3.03829 15.1097C3.52868 16.2194 4.2003 17.2011 5.05316 18.0548C5.90601 18.8871 6.90812 19.538 8.05947 20.0075C9.21082 20.4557 10.4581 20.6798 11.8014 20.6798C13.0806 20.6798 14.2746 20.4664 15.3833 20.0395C16.4921 19.6127 17.5048 18.9298 18.4216 17.9908L19.9248 19.4953C18.944 20.5837 17.7394 21.4054 16.3108 21.9603C14.8823 22.5151 13.3472 22.7926 11.7054 22.7926Z" fill="#080816"/>
<path d="M24.97 22.6005V0.192072H27.3366V22.6005H24.97Z" fill="#080816"/>
<path d="M36.7316 11.0442H36.9874H48.5649V13.0929H36.9874H36.7316V11.0442Z" fill="#080816"/>
<path d="M50.2155 22.6005L60.4497 0.192072H62.7844L73.0187 22.6005H70.5241L61.1214 1.56859H62.0808L52.6781 22.6005H50.2155Z" fill="#080816"/>
<path d="M96.1072 22.6005L105.286 10.1798V12.0045L96.6509 0.192072H99.3694L106.629 10.0518L105.574 10.0838L112.834 0.192072H115.392L106.853 11.8445V10.1798L116 22.6005H113.25L105.51 12.0685H106.501L98.8257 22.6005H96.1072Z" fill="#080816"/>
<path d="M34.6208 0.192072H49.9721V2.24084H36.9874H34.6208V0.192072Z" fill="#080816"/>
<path d="M36.9874 13.0929H36.7316V11.0442H34.6208V22.6005H36.9874V13.0929Z" fill="#080816"/>
<path fill-rule="evenodd" clip-rule="evenodd" d="M86.1557 0.0908203H76.2935V2.34302H85.9074C89.0152 2.34302 91.5346 4.86236 91.5346 7.97014C91.5346 11.0779 89.0152 13.5973 85.9074 13.5973H76.2935V15.3466H86.1557C90.3685 15.3466 93.7836 11.9314 93.7836 7.71869C93.7836 3.50594 90.3685 0.0908203 86.1557 0.0908203Z" fill="#080816"/>
<rect x="76.2935" y="15.3464" width="2.24874" height="7.25273" fill="#080816"/>
<path d="M86.2886 15.3118L88.2874 14.3479L94.1591 22.601L91.5356 22.601L86.2886 15.3118Z" fill="#080816"/>
</svg>
